<mxfile host="app.diagrams.net" agent="Mozilla/5.0 (X11; Linux x86_64) AppleWebKit/537.36 (KHTML, like Gecko) Chrome/128.0.0.0 Safari/537.36" version="24.7.8" pages="10">
  <diagram name="singleton-pattern" id="eqs7JD16vDoEEscOEdrf">
    <mxGraphModel dx="2714" dy="1196" grid="0" gridSize="10" guides="1" tooltips="1" connect="1" arrows="1" fold="1" page="0" pageScale="1" pageWidth="850" pageHeight="1100" math="0" shadow="0">
      <root>
        <mxCell id="0" />
        <mxCell id="1" parent="0" />
        <mxCell id="7C1rUI94SHYAoZrGA9Un-16" style="edgeStyle=orthogonalEdgeStyle;rounded=0;orthogonalLoop=1;jettySize=auto;html=1;dashed=1;endArrow=none;endFill=0;" parent="1" source="7C1rUI94SHYAoZrGA9Un-2" target="7C1rUI94SHYAoZrGA9Un-15" edge="1">
          <mxGeometry relative="1" as="geometry" />
        </mxCell>
        <mxCell id="7C1rUI94SHYAoZrGA9Un-2" value="&lt;p style=&quot;margin:0px;margin-top:4px;text-align:center;&quot;&gt;&lt;i&gt;Singleton&lt;/i&gt;&lt;/p&gt;&lt;hr size=&quot;1&quot;&gt;&lt;p style=&quot;margin:0px;margin-left:4px;&quot;&gt;+ &lt;u&gt;instance: Singleton&lt;/u&gt;&lt;span style=&quot;white-space: pre;&quot;&gt;&#x9;&lt;/span&gt;&lt;span style=&quot;white-space: pre;&quot;&gt;&#x9;&lt;/span&gt;&lt;span style=&quot;white-space: pre;&quot;&gt;&#x9;&lt;/span&gt;&lt;br&gt;&lt;/p&gt;&lt;hr size=&quot;1&quot;&gt;&lt;p style=&quot;margin:0px;margin-left:4px;&quot;&gt;- Singleton()&lt;/p&gt;&lt;p style=&quot;margin:0px;margin-left:4px;&quot;&gt;+ &lt;u&gt;getInstance(): Singleton&lt;/u&gt;&lt;/p&gt;" style="verticalAlign=top;align=left;overflow=fill;fontSize=12;fontFamily=Helvetica;html=1;whiteSpace=wrap;strokeWidth=3;rounded=1;glass=0;" parent="1" vertex="1">
          <mxGeometry x="105" y="102" width="202" height="96" as="geometry" />
        </mxCell>
        <mxCell id="7C1rUI94SHYAoZrGA9Un-3" value="Client" style="html=1;whiteSpace=wrap;fontSize=16;rounded=1;strokeWidth=2;" parent="1" vertex="1">
          <mxGeometry x="-90" y="158" width="110" height="50" as="geometry" />
        </mxCell>
        <mxCell id="7C1rUI94SHYAoZrGA9Un-4" style="edgeStyle=orthogonalEdgeStyle;rounded=0;orthogonalLoop=1;jettySize=auto;html=1;entryX=1;entryY=0.15;entryDx=0;entryDy=0;entryPerimeter=0;" parent="1" source="7C1rUI94SHYAoZrGA9Un-2" target="7C1rUI94SHYAoZrGA9Un-2" edge="1">
          <mxGeometry relative="1" as="geometry">
            <Array as="points">
              <mxPoint x="327" y="144" />
              <mxPoint x="327" y="116" />
            </Array>
          </mxGeometry>
        </mxCell>
        <mxCell id="7C1rUI94SHYAoZrGA9Un-14" style="edgeStyle=orthogonalEdgeStyle;rounded=0;orthogonalLoop=1;jettySize=auto;html=1;entryX=0.002;entryY=0.842;entryDx=0;entryDy=0;entryPerimeter=0;" parent="1" source="7C1rUI94SHYAoZrGA9Un-3" target="7C1rUI94SHYAoZrGA9Un-2" edge="1">
          <mxGeometry relative="1" as="geometry" />
        </mxCell>
        <mxCell id="7C1rUI94SHYAoZrGA9Un-15" value="&lt;b&gt;if &lt;/b&gt;(instance == &lt;b&gt;null&lt;/b&gt;) {&lt;br&gt;&lt;span style=&quot;white-space: pre;&quot;&gt;&#x9;&lt;/span&gt;// Note: if you are creating an app with&amp;nbsp;&lt;br&gt;&lt;span style=&quot;white-space: pre;&quot;&gt;&#x9;&lt;/span&gt;// multithreading support, you should place&lt;br&gt;&lt;span style=&quot;white-space: pre;&quot;&gt;&#x9;&lt;/span&gt;// a thread lock here.&lt;br&gt;&lt;span style=&quot;white-space: pre;&quot;&gt;&#x9;&lt;/span&gt;instance = &lt;b&gt;new&amp;nbsp;&lt;/b&gt;&amp;nbsp;Singleton()&lt;br&gt;}&lt;br&gt;&lt;b&gt;return&amp;nbsp;&lt;/b&gt;instance" style="shape=note;whiteSpace=wrap;html=1;backgroundOutline=1;darkOpacity=0.05;fillColor=#f5f5f5;fontColor=#333333;strokeColor=#666666;align=left;" parent="1" vertex="1">
          <mxGeometry x="71.5" y="275" width="269" height="118" as="geometry" />
        </mxCell>
      </root>
    </mxGraphModel>
  </diagram>
  <diagram id="SM_OWjA_TI16I8VinPqB" name="builder-pattern">
    <mxGraphModel dx="2074" dy="1098" grid="1" gridSize="10" guides="1" tooltips="1" connect="1" arrows="1" fold="1" page="1" pageScale="1" pageWidth="850" pageHeight="1100" math="0" shadow="0">
      <root>
        <mxCell id="0" />
        <mxCell id="1" parent="0" />
        <mxCell id="fIJuwE88hS2yKxo8rSOz-34" style="edgeStyle=orthogonalEdgeStyle;rounded=0;orthogonalLoop=1;jettySize=auto;html=1;endArrow=open;endFill=0;" parent="1" source="fIJuwE88hS2yKxo8rSOz-1" target="fIJuwE88hS2yKxo8rSOz-4" edge="1">
          <mxGeometry relative="1" as="geometry" />
        </mxCell>
        <mxCell id="fIJuwE88hS2yKxo8rSOz-35" style="edgeStyle=orthogonalEdgeStyle;rounded=0;orthogonalLoop=1;jettySize=auto;html=1;entryX=0.313;entryY=0.009;entryDx=0;entryDy=0;entryPerimeter=0;dashed=1;endArrow=open;endFill=0;" parent="1" source="fIJuwE88hS2yKxo8rSOz-1" target="fIJuwE88hS2yKxo8rSOz-21" edge="1">
          <mxGeometry relative="1" as="geometry" />
        </mxCell>
        <mxCell id="fIJuwE88hS2yKxo8rSOz-1" value="Client" style="html=1;whiteSpace=wrap;rounded=1;fontFamily=Tahoma;fontStyle=1" parent="1" vertex="1">
          <mxGeometry x="350" y="260" width="60" height="30" as="geometry" />
        </mxCell>
        <mxCell id="fIJuwE88hS2yKxo8rSOz-4" value="class&amp;nbsp;&lt;b style=&quot;border-color: var(--border-color);&quot;&gt;Director&lt;br&gt;&lt;br&gt;&lt;/b&gt;" style="swimlane;fontStyle=1;align=center;verticalAlign=top;childLayout=stackLayout;horizontal=1;startSize=26;horizontalStack=0;resizeParent=1;resizeParentMax=0;resizeLast=0;collapsible=1;marginBottom=0;whiteSpace=wrap;html=1;fillColor=#f8cecc;strokeColor=#b85450;fontFamily=Tahoma;" parent="1" vertex="1">
          <mxGeometry x="480" y="320" width="160" height="120" as="geometry" />
        </mxCell>
        <mxCell id="fIJuwE88hS2yKxo8rSOz-5" value="+ builder: Builder" style="text;strokeColor=none;fillColor=none;align=left;verticalAlign=top;spacingLeft=4;spacingRight=4;overflow=hidden;rotatable=0;points=[[0,0.5],[1,0.5]];portConstraint=eastwest;whiteSpace=wrap;html=1;fontFamily=Tahoma;" parent="fIJuwE88hS2yKxo8rSOz-4" vertex="1">
          <mxGeometry y="26" width="160" height="26" as="geometry" />
        </mxCell>
        <mxCell id="fIJuwE88hS2yKxo8rSOz-6" value="" style="line;strokeWidth=1;fillColor=none;align=left;verticalAlign=middle;spacingTop=-1;spacingLeft=3;spacingRight=3;rotatable=0;labelPosition=right;points=[];portConstraint=eastwest;strokeColor=inherit;fontFamily=Tahoma;" parent="fIJuwE88hS2yKxo8rSOz-4" vertex="1">
          <mxGeometry y="52" width="160" height="8" as="geometry" />
        </mxCell>
        <mxCell id="fIJuwE88hS2yKxo8rSOz-7" value="&lt;p style=&quot;border-color: var(--border-color); margin: 0px 0px 0px 4px;&quot;&gt;+ Director(builder)&lt;br style=&quot;border-color: var(--border-color);&quot;&gt;+ changeBuilder(builder)&lt;/p&gt;&lt;p style=&quot;border-color: var(--border-color); margin: 0px 0px 0px 4px;&quot;&gt;+ make(type)&lt;/p&gt;" style="text;strokeColor=none;fillColor=none;align=left;verticalAlign=top;spacingLeft=4;spacingRight=4;overflow=hidden;rotatable=0;points=[[0,0.5],[1,0.5]];portConstraint=eastwest;whiteSpace=wrap;html=1;fontFamily=Tahoma;" parent="fIJuwE88hS2yKxo8rSOz-4" vertex="1">
          <mxGeometry y="60" width="160" height="60" as="geometry" />
        </mxCell>
        <mxCell id="fIJuwE88hS2yKxo8rSOz-12" value="&amp;lt;&amp;lt;interface&amp;gt;&amp;gt;&amp;nbsp;&lt;b&gt;Builder&lt;/b&gt;" style="swimlane;fontStyle=0;childLayout=stackLayout;horizontal=1;startSize=26;fillColor=#d5e8d4;horizontalStack=0;resizeParent=1;resizeParentMax=0;resizeLast=0;collapsible=1;marginBottom=0;whiteSpace=wrap;html=1;strokeColor=#82b366;fontFamily=Tahoma;" parent="1" vertex="1">
          <mxGeometry x="180" y="320" width="140" height="80" as="geometry" />
        </mxCell>
        <mxCell id="fIJuwE88hS2yKxo8rSOz-13" value="+ reset()&lt;br&gt;+ buildStepA()&lt;br&gt;+ buildStepB()" style="text;strokeColor=none;fillColor=none;align=left;verticalAlign=top;spacingLeft=4;spacingRight=4;overflow=hidden;rotatable=0;points=[[0,0.5],[1,0.5]];portConstraint=eastwest;whiteSpace=wrap;html=1;fontFamily=Tahoma;" parent="fIJuwE88hS2yKxo8rSOz-12" vertex="1">
          <mxGeometry y="26" width="140" height="54" as="geometry" />
        </mxCell>
        <mxCell id="fIJuwE88hS2yKxo8rSOz-30" style="edgeStyle=orthogonalEdgeStyle;rounded=0;orthogonalLoop=1;jettySize=auto;html=1;entryX=0.5;entryY=1;entryDx=0;entryDy=0;entryPerimeter=0;endArrow=block;endFill=0;dashed=1;" parent="1" source="fIJuwE88hS2yKxo8rSOz-17" target="fIJuwE88hS2yKxo8rSOz-13" edge="1">
          <mxGeometry relative="1" as="geometry">
            <mxPoint x="250" y="400" as="targetPoint" />
            <Array as="points">
              <mxPoint x="370" y="450" />
              <mxPoint x="250" y="450" />
            </Array>
          </mxGeometry>
        </mxCell>
        <mxCell id="fIJuwE88hS2yKxo8rSOz-17" value="&lt;b style=&quot;border-color: var(--border-color);&quot;&gt;concrete Builder2&lt;br&gt;&lt;/b&gt;" style="swimlane;fontStyle=1;align=center;verticalAlign=top;childLayout=stackLayout;horizontal=1;startSize=26;horizontalStack=0;resizeParent=1;resizeParentMax=0;resizeLast=0;collapsible=1;marginBottom=0;whiteSpace=wrap;html=1;fillColor=#f8cecc;strokeColor=#b85450;fontFamily=Tahoma;" parent="1" vertex="1">
          <mxGeometry x="290" y="500" width="160" height="150" as="geometry" />
        </mxCell>
        <mxCell id="fIJuwE88hS2yKxo8rSOz-18" value="- result: Product2" style="text;strokeColor=none;fillColor=none;align=left;verticalAlign=top;spacingLeft=4;spacingRight=4;overflow=hidden;rotatable=0;points=[[0,0.5],[1,0.5]];portConstraint=eastwest;whiteSpace=wrap;html=1;fontFamily=Tahoma;" parent="fIJuwE88hS2yKxo8rSOz-17" vertex="1">
          <mxGeometry y="26" width="160" height="26" as="geometry" />
        </mxCell>
        <mxCell id="fIJuwE88hS2yKxo8rSOz-19" value="" style="line;strokeWidth=1;fillColor=none;align=left;verticalAlign=middle;spacingTop=-1;spacingLeft=3;spacingRight=3;rotatable=0;labelPosition=right;points=[];portConstraint=eastwest;strokeColor=inherit;fontFamily=Tahoma;" parent="fIJuwE88hS2yKxo8rSOz-17" vertex="1">
          <mxGeometry y="52" width="160" height="8" as="geometry" />
        </mxCell>
        <mxCell id="fIJuwE88hS2yKxo8rSOz-20" value="&lt;p style=&quot;border-color: var(--border-color); margin: 0px 0px 0px 4px;&quot;&gt;+ reset()&lt;br style=&quot;border-color: var(--border-color);&quot;&gt;+ buildStepA()&lt;br style=&quot;border-color: var(--border-color);&quot;&gt;+ buildStepB()&lt;br style=&quot;border-color: var(--border-color);&quot;&gt;+ buildStepZ()&lt;br style=&quot;border-color: var(--border-color);&quot;&gt;+ getResult(): Product2&lt;br&gt;&lt;/p&gt;" style="text;strokeColor=none;fillColor=none;align=left;verticalAlign=top;spacingLeft=4;spacingRight=4;overflow=hidden;rotatable=0;points=[[0,0.5],[1,0.5]];portConstraint=eastwest;whiteSpace=wrap;html=1;fontFamily=Tahoma;" parent="fIJuwE88hS2yKxo8rSOz-17" vertex="1">
          <mxGeometry y="60" width="160" height="90" as="geometry" />
        </mxCell>
        <mxCell id="fIJuwE88hS2yKxo8rSOz-21" value="&lt;b style=&quot;border-color: var(--border-color);&quot;&gt;concrete Builder1&lt;br&gt;&lt;/b&gt;" style="swimlane;fontStyle=1;align=center;verticalAlign=top;childLayout=stackLayout;horizontal=1;startSize=26;horizontalStack=0;resizeParent=1;resizeParentMax=0;resizeLast=0;collapsible=1;marginBottom=0;whiteSpace=wrap;html=1;fillColor=#f8cecc;strokeColor=#b85450;fontFamily=Tahoma;" parent="1" vertex="1">
          <mxGeometry x="60" y="500" width="160" height="150" as="geometry" />
        </mxCell>
        <mxCell id="fIJuwE88hS2yKxo8rSOz-22" value="- result: Product1" style="text;strokeColor=none;fillColor=none;align=left;verticalAlign=top;spacingLeft=4;spacingRight=4;overflow=hidden;rotatable=0;points=[[0,0.5],[1,0.5]];portConstraint=eastwest;whiteSpace=wrap;html=1;fontFamily=Tahoma;" parent="fIJuwE88hS2yKxo8rSOz-21" vertex="1">
          <mxGeometry y="26" width="160" height="26" as="geometry" />
        </mxCell>
        <mxCell id="fIJuwE88hS2yKxo8rSOz-23" value="" style="line;strokeWidth=1;fillColor=none;align=left;verticalAlign=middle;spacingTop=-1;spacingLeft=3;spacingRight=3;rotatable=0;labelPosition=right;points=[];portConstraint=eastwest;strokeColor=inherit;fontFamily=Tahoma;" parent="fIJuwE88hS2yKxo8rSOz-21" vertex="1">
          <mxGeometry y="52" width="160" height="8" as="geometry" />
        </mxCell>
        <mxCell id="fIJuwE88hS2yKxo8rSOz-24" value="&lt;p style=&quot;border-color: var(--border-color); margin: 0px 0px 0px 4px;&quot;&gt;+ reset()&lt;br style=&quot;border-color: var(--border-color);&quot;&gt;+ buildStepA()&lt;br style=&quot;border-color: var(--border-color);&quot;&gt;+ buildStepB()&lt;br&gt;+ buildStepZ()&lt;br&gt;+ getResult(): Product1&lt;/p&gt;" style="text;strokeColor=none;fillColor=none;align=left;verticalAlign=top;spacingLeft=4;spacingRight=4;overflow=hidden;rotatable=0;points=[[0,0.5],[1,0.5]];portConstraint=eastwest;whiteSpace=wrap;html=1;fontFamily=Tahoma;" parent="fIJuwE88hS2yKxo8rSOz-21" vertex="1">
          <mxGeometry y="60" width="160" height="90" as="geometry" />
        </mxCell>
        <mxCell id="fIJuwE88hS2yKxo8rSOz-25" value="Product1" style="html=1;whiteSpace=wrap;fontFamily=Tahoma;rounded=1;fontStyle=1" parent="1" vertex="1">
          <mxGeometry x="85" y="710" width="110" height="50" as="geometry" />
        </mxCell>
        <mxCell id="fIJuwE88hS2yKxo8rSOz-26" value="Product2" style="html=1;whiteSpace=wrap;fontFamily=Tahoma;rounded=1;fontStyle=1" parent="1" vertex="1">
          <mxGeometry x="310" y="710" width="110" height="50" as="geometry" />
        </mxCell>
        <mxCell id="fIJuwE88hS2yKxo8rSOz-27" style="edgeStyle=orthogonalEdgeStyle;rounded=0;orthogonalLoop=1;jettySize=auto;html=1;entryX=0.498;entryY=1.011;entryDx=0;entryDy=0;entryPerimeter=0;startArrow=classic;startFill=1;endArrow=none;endFill=0;" parent="1" source="fIJuwE88hS2yKxo8rSOz-25" target="fIJuwE88hS2yKxo8rSOz-24" edge="1">
          <mxGeometry relative="1" as="geometry" />
        </mxCell>
        <mxCell id="fIJuwE88hS2yKxo8rSOz-28" style="edgeStyle=orthogonalEdgeStyle;rounded=0;orthogonalLoop=1;jettySize=auto;html=1;entryX=0.471;entryY=1;entryDx=0;entryDy=0;entryPerimeter=0;endArrow=none;endFill=0;startArrow=classic;startFill=1;" parent="1" source="fIJuwE88hS2yKxo8rSOz-26" target="fIJuwE88hS2yKxo8rSOz-20" edge="1">
          <mxGeometry relative="1" as="geometry" />
        </mxCell>
        <mxCell id="fIJuwE88hS2yKxo8rSOz-32" style="edgeStyle=orthogonalEdgeStyle;rounded=0;orthogonalLoop=1;jettySize=auto;html=1;entryX=0.5;entryY=0.988;entryDx=0;entryDy=0;entryPerimeter=0;endArrow=block;endFill=0;dashed=1;" parent="1" source="fIJuwE88hS2yKxo8rSOz-21" target="fIJuwE88hS2yKxo8rSOz-13" edge="1">
          <mxGeometry relative="1" as="geometry" />
        </mxCell>
        <mxCell id="fIJuwE88hS2yKxo8rSOz-33" style="edgeStyle=orthogonalEdgeStyle;rounded=0;orthogonalLoop=1;jettySize=auto;html=1;entryX=0.993;entryY=0.154;entryDx=0;entryDy=0;entryPerimeter=0;endArrow=open;endFill=0;" parent="1" source="fIJuwE88hS2yKxo8rSOz-4" target="fIJuwE88hS2yKxo8rSOz-12" edge="1">
          <mxGeometry relative="1" as="geometry" />
        </mxCell>
        <mxCell id="fIJuwE88hS2yKxo8rSOz-39" value="Text" style="text;html=1;strokeColor=none;fillColor=none;align=center;verticalAlign=middle;whiteSpace=wrap;rounded=0;" parent="1" vertex="1">
          <mxGeometry x="390" y="520" width="60" height="30" as="geometry" />
        </mxCell>
      </root>
    </mxGraphModel>
  </diagram>
  <diagram id="BC_HhDMvOKvhDKQM-v_S" name="composite-pattern">
    <mxGraphModel dx="819" dy="422" grid="1" gridSize="10" guides="1" tooltips="1" connect="1" arrows="1" fold="1" page="1" pageScale="1" pageWidth="850" pageHeight="1100" math="0" shadow="0">
      <root>
        <mxCell id="0" />
        <mxCell id="1" parent="0" />
        <mxCell id="K0c7K0UwsA5ypui3i18v-3" value="" style="edgeStyle=orthogonalEdgeStyle;rounded=0;orthogonalLoop=1;jettySize=auto;html=1;entryX=0.5;entryY=0;entryDx=0;entryDy=0;strokeColor=#FF8000;" edge="1" parent="1" source="K0c7K0UwsA5ypui3i18v-1" target="K0c7K0UwsA5ypui3i18v-4">
          <mxGeometry relative="1" as="geometry">
            <mxPoint x="315" y="310" as="targetPoint" />
          </mxGeometry>
        </mxCell>
        <mxCell id="K0c7K0UwsA5ypui3i18v-1" value="Client" style="rounded=0;whiteSpace=wrap;html=1;fontFamily=Tahoma;" vertex="1" parent="1">
          <mxGeometry x="270" y="190" width="90" height="40" as="geometry" />
        </mxCell>
        <mxCell id="K0c7K0UwsA5ypui3i18v-4" value="&amp;lt;&amp;lt;interface&amp;gt;&amp;gt;&amp;nbsp;&lt;span style=&quot;font-weight: normal;&quot;&gt;Component&lt;/span&gt;" style="swimlane;fontStyle=1;align=center;verticalAlign=top;childLayout=stackLayout;horizontal=1;startSize=26;horizontalStack=0;resizeParent=1;resizeParentMax=0;resizeLast=0;collapsible=1;marginBottom=0;whiteSpace=wrap;html=1;" vertex="1" parent="1">
          <mxGeometry x="215" y="320" width="200" height="80" as="geometry" />
        </mxCell>
        <mxCell id="K0c7K0UwsA5ypui3i18v-5" value="..." style="text;strokeColor=none;fillColor=none;align=left;verticalAlign=top;spacingLeft=4;spacingRight=4;overflow=hidden;rotatable=0;points=[[0,0.5],[1,0.5]];portConstraint=eastwest;whiteSpace=wrap;html=1;" vertex="1" parent="K0c7K0UwsA5ypui3i18v-4">
          <mxGeometry y="26" width="200" height="20" as="geometry" />
        </mxCell>
        <mxCell id="K0c7K0UwsA5ypui3i18v-6" value="" style="line;strokeWidth=1;fillColor=none;align=left;verticalAlign=middle;spacingTop=-1;spacingLeft=3;spacingRight=3;rotatable=0;labelPosition=right;points=[];portConstraint=eastwest;strokeColor=inherit;" vertex="1" parent="K0c7K0UwsA5ypui3i18v-4">
          <mxGeometry y="46" width="200" height="8" as="geometry" />
        </mxCell>
        <mxCell id="K0c7K0UwsA5ypui3i18v-7" value="+ execute()" style="text;strokeColor=none;fillColor=none;align=left;verticalAlign=top;spacingLeft=4;spacingRight=4;overflow=hidden;rotatable=0;points=[[0,0.5],[1,0.5]];portConstraint=eastwest;whiteSpace=wrap;html=1;" vertex="1" parent="K0c7K0UwsA5ypui3i18v-4">
          <mxGeometry y="54" width="200" height="26" as="geometry" />
        </mxCell>
        <mxCell id="K0c7K0UwsA5ypui3i18v-11" style="edgeStyle=orthogonalEdgeStyle;rounded=0;orthogonalLoop=1;jettySize=auto;html=1;endArrow=none;endFill=0;dashed=1;strokeColor=#808080;" edge="1" parent="1" source="K0c7K0UwsA5ypui3i18v-8" target="K0c7K0UwsA5ypui3i18v-10">
          <mxGeometry relative="1" as="geometry" />
        </mxCell>
        <mxCell id="K0c7K0UwsA5ypui3i18v-8" value="&lt;p style=&quot;margin:0px;margin-top:4px;text-align:center;&quot;&gt;&lt;b&gt;Composite&lt;/b&gt;&lt;/p&gt;&lt;hr size=&quot;1&quot; style=&quot;border-style:solid;&quot;&gt;&lt;p style=&quot;margin:0px;margin-left:4px;&quot;&gt;- children: Component[]&lt;/p&gt;&lt;hr size=&quot;1&quot; style=&quot;border-style:solid;&quot;&gt;&lt;p style=&quot;margin:0px;margin-left:4px;&quot;&gt;+ add(c:Component)&lt;br&gt;+ remove(c:Component)&lt;br&gt;+ getChildren():&amp;nbsp;&lt;span style=&quot;background-color: initial;&quot;&gt;Component[]&lt;br&gt;+ execute()&lt;/span&gt;&lt;/p&gt;" style="verticalAlign=top;align=left;overflow=fill;html=1;whiteSpace=wrap;" vertex="1" parent="1">
          <mxGeometry x="540" y="440" width="170" height="120" as="geometry" />
        </mxCell>
        <mxCell id="K0c7K0UwsA5ypui3i18v-9" style="edgeStyle=orthogonalEdgeStyle;rounded=0;orthogonalLoop=1;jettySize=auto;html=1;entryX=0.5;entryY=0;entryDx=0;entryDy=0;endArrow=diamond;endFill=0;startArrow=open;startFill=0;strokeColor=#FF8000;" edge="1" parent="1" source="K0c7K0UwsA5ypui3i18v-7" target="K0c7K0UwsA5ypui3i18v-8">
          <mxGeometry relative="1" as="geometry" />
        </mxCell>
        <mxCell id="K0c7K0UwsA5ypui3i18v-10" value="Delegate all work to child components" style="rounded=0;whiteSpace=wrap;html=1;fillColor=#808080;strokeColor=#FFFFFF;fontColor=#FFFFFF;" vertex="1" parent="1">
          <mxGeometry x="540" y="620" width="170" height="60" as="geometry" />
        </mxCell>
        <mxCell id="K0c7K0UwsA5ypui3i18v-13" style="edgeStyle=orthogonalEdgeStyle;rounded=0;orthogonalLoop=1;jettySize=auto;html=1;dashed=1;endArrow=block;endFill=0;strokeColor=#FF8000;" edge="1" parent="1" source="K0c7K0UwsA5ypui3i18v-12" target="K0c7K0UwsA5ypui3i18v-7">
          <mxGeometry relative="1" as="geometry" />
        </mxCell>
        <mxCell id="K0c7K0UwsA5ypui3i18v-12" value="&lt;p style=&quot;margin:0px;margin-top:4px;text-align:center;&quot;&gt;&lt;b&gt;Leaf&lt;/b&gt;&lt;/p&gt;&lt;hr size=&quot;1&quot; style=&quot;border-style:solid;&quot;&gt;&lt;p style=&quot;margin:0px;margin-left:4px;&quot;&gt;...&lt;/p&gt;&lt;hr size=&quot;1&quot; style=&quot;border-style:solid;&quot;&gt;&lt;p style=&quot;margin:0px;margin-left:4px;&quot;&gt;&lt;span style=&quot;background-color: initial;&quot;&gt;+ execute()&lt;/span&gt;&lt;/p&gt;" style="verticalAlign=top;align=left;overflow=fill;html=1;whiteSpace=wrap;" vertex="1" parent="1">
          <mxGeometry x="110" y="450" width="170" height="80" as="geometry" />
        </mxCell>
        <mxCell id="K0c7K0UwsA5ypui3i18v-14" style="edgeStyle=orthogonalEdgeStyle;rounded=0;orthogonalLoop=1;jettySize=auto;html=1;entryX=0;entryY=0.167;entryDx=0;entryDy=0;entryPerimeter=0;endArrow=none;endFill=0;dashed=1;strokeColor=#FF8000;" edge="1" parent="1" source="K0c7K0UwsA5ypui3i18v-12" target="K0c7K0UwsA5ypui3i18v-8">
          <mxGeometry relative="1" as="geometry">
            <Array as="points">
              <mxPoint x="195" y="430" />
              <mxPoint x="410" y="430" />
              <mxPoint x="410" y="460" />
            </Array>
          </mxGeometry>
        </mxCell>
        <mxCell id="K0c7K0UwsA5ypui3i18v-16" style="edgeStyle=orthogonalEdgeStyle;rounded=0;orthogonalLoop=1;jettySize=auto;html=1;entryX=0.5;entryY=1;entryDx=0;entryDy=0;endArrow=none;endFill=0;dashed=1;strokeColor=#808080;" edge="1" parent="1" source="K0c7K0UwsA5ypui3i18v-15" target="K0c7K0UwsA5ypui3i18v-12">
          <mxGeometry relative="1" as="geometry" />
        </mxCell>
        <mxCell id="K0c7K0UwsA5ypui3i18v-15" value="Do some work" style="rounded=0;whiteSpace=wrap;html=1;fillColor=#808080;strokeColor=#FFFFFF;fontColor=#FFFFFF;" vertex="1" parent="1">
          <mxGeometry x="135" y="580" width="120" height="30" as="geometry" />
        </mxCell>
      </root>
    </mxGraphModel>
  </diagram>
  <diagram name="example-composite-pattern" id="B0L848wcJW0Bb_xNdk3j">
    <mxGraphModel dx="1221" dy="674" grid="1" gridSize="10" guides="1" tooltips="1" connect="1" arrows="1" fold="1" page="1" pageScale="1" pageWidth="850" pageHeight="1100" math="0" shadow="0">
      <root>
        <mxCell id="KngEQsPvvqdOOyxPIZuh-0" />
        <mxCell id="KngEQsPvvqdOOyxPIZuh-1" parent="KngEQsPvvqdOOyxPIZuh-0" />
        <mxCell id="KngEQsPvvqdOOyxPIZuh-2" value="" style="edgeStyle=orthogonalEdgeStyle;rounded=0;orthogonalLoop=1;jettySize=auto;html=1;entryX=0.5;entryY=0;entryDx=0;entryDy=0;strokeColor=#FF8000;fontFamily=Tahoma;" edge="1" parent="KngEQsPvvqdOOyxPIZuh-1" source="KngEQsPvvqdOOyxPIZuh-3" target="KngEQsPvvqdOOyxPIZuh-4">
          <mxGeometry relative="1" as="geometry">
            <mxPoint x="315" y="310" as="targetPoint" />
          </mxGeometry>
        </mxCell>
        <mxCell id="KngEQsPvvqdOOyxPIZuh-3" value="File Finder" style="rounded=0;whiteSpace=wrap;html=1;fontFamily=Tahoma;fontStyle=1" vertex="1" parent="KngEQsPvvqdOOyxPIZuh-1">
          <mxGeometry x="270" y="190" width="90" height="40" as="geometry" />
        </mxCell>
        <mxCell id="KngEQsPvvqdOOyxPIZuh-4" value="&amp;lt;&amp;lt;interface&amp;gt;&amp;gt;&amp;nbsp;&lt;span style=&quot;font-weight: normal;&quot;&gt;Component&lt;/span&gt;" style="swimlane;fontStyle=1;align=center;verticalAlign=top;childLayout=stackLayout;horizontal=1;startSize=26;horizontalStack=0;resizeParent=1;resizeParentMax=0;resizeLast=0;collapsible=1;marginBottom=0;whiteSpace=wrap;html=1;fontFamily=Tahoma;" vertex="1" parent="KngEQsPvvqdOOyxPIZuh-1">
          <mxGeometry x="215" y="320" width="200" height="80" as="geometry" />
        </mxCell>
        <mxCell id="KngEQsPvvqdOOyxPIZuh-5" value="..." style="text;strokeColor=none;fillColor=none;align=left;verticalAlign=top;spacingLeft=4;spacingRight=4;overflow=hidden;rotatable=0;points=[[0,0.5],[1,0.5]];portConstraint=eastwest;whiteSpace=wrap;html=1;fontFamily=Tahoma;" vertex="1" parent="KngEQsPvvqdOOyxPIZuh-4">
          <mxGeometry y="26" width="200" height="20" as="geometry" />
        </mxCell>
        <mxCell id="KngEQsPvvqdOOyxPIZuh-6" value="" style="line;strokeWidth=1;fillColor=none;align=left;verticalAlign=middle;spacingTop=-1;spacingLeft=3;spacingRight=3;rotatable=0;labelPosition=right;points=[];portConstraint=eastwest;strokeColor=inherit;fontFamily=Tahoma;" vertex="1" parent="KngEQsPvvqdOOyxPIZuh-4">
          <mxGeometry y="46" width="200" height="8" as="geometry" />
        </mxCell>
        <mxCell id="KngEQsPvvqdOOyxPIZuh-7" value="+ search(key): boolean" style="text;strokeColor=none;fillColor=none;align=left;verticalAlign=top;spacingLeft=4;spacingRight=4;overflow=hidden;rotatable=0;points=[[0,0.5],[1,0.5]];portConstraint=eastwest;whiteSpace=wrap;html=1;fontFamily=Tahoma;" vertex="1" parent="KngEQsPvvqdOOyxPIZuh-4">
          <mxGeometry y="54" width="200" height="26" as="geometry" />
        </mxCell>
        <mxCell id="KngEQsPvvqdOOyxPIZuh-9" value="&lt;p style=&quot;margin:0px;margin-top:4px;text-align:center;&quot;&gt;&lt;b&gt;Folder&lt;/b&gt;&lt;/p&gt;&lt;hr style=&quot;border-style:solid;&quot; size=&quot;1&quot;&gt;&lt;p style=&quot;margin:0px;margin-left:4px;&quot;&gt;- children: Component[]&lt;/p&gt;&lt;p style=&quot;margin:0px;margin-left:4px;&quot;&gt;- name: string&lt;/p&gt;&lt;hr style=&quot;border-style:solid;&quot; size=&quot;1&quot;&gt;&lt;p style=&quot;margin:0px;margin-left:4px;&quot;&gt;+&lt;span style=&quot;background-color: initial;&quot;&gt;&amp;nbsp;search(key): boolean&lt;/span&gt;&lt;/p&gt;&lt;p style=&quot;margin:0px;margin-left:4px;&quot;&gt;&lt;span style=&quot;background-color: initial;&quot;&gt;+ add(c: Component)&lt;/span&gt;&lt;/p&gt;" style="verticalAlign=top;align=left;overflow=fill;html=1;whiteSpace=wrap;fontFamily=Tahoma;" vertex="1" parent="KngEQsPvvqdOOyxPIZuh-1">
          <mxGeometry x="540" y="430" width="170" height="110" as="geometry" />
        </mxCell>
        <mxCell id="KngEQsPvvqdOOyxPIZuh-10" style="edgeStyle=orthogonalEdgeStyle;rounded=0;orthogonalLoop=1;jettySize=auto;html=1;entryX=0.5;entryY=0;entryDx=0;entryDy=0;endArrow=diamond;endFill=0;startArrow=open;startFill=0;strokeColor=#FF8000;fontFamily=Tahoma;" edge="1" parent="KngEQsPvvqdOOyxPIZuh-1" source="KngEQsPvvqdOOyxPIZuh-7" target="KngEQsPvvqdOOyxPIZuh-9">
          <mxGeometry relative="1" as="geometry" />
        </mxCell>
        <mxCell id="KngEQsPvvqdOOyxPIZuh-12" style="edgeStyle=orthogonalEdgeStyle;rounded=0;orthogonalLoop=1;jettySize=auto;html=1;dashed=1;endArrow=block;endFill=0;strokeColor=#FF8000;fontFamily=Tahoma;" edge="1" parent="KngEQsPvvqdOOyxPIZuh-1" source="KngEQsPvvqdOOyxPIZuh-13" target="KngEQsPvvqdOOyxPIZuh-7">
          <mxGeometry relative="1" as="geometry" />
        </mxCell>
        <mxCell id="KngEQsPvvqdOOyxPIZuh-13" value="&lt;p style=&quot;margin:0px;margin-top:4px;text-align:center;&quot;&gt;&lt;b&gt;File&lt;/b&gt;&lt;/p&gt;&lt;hr style=&quot;border-style:solid;&quot; size=&quot;1&quot;&gt;&lt;p style=&quot;margin:0px;margin-left:4px;&quot;&gt;- name: string&lt;/p&gt;&lt;hr style=&quot;border-style:solid;&quot; size=&quot;1&quot;&gt;&lt;p style=&quot;margin:0px;margin-left:4px;&quot;&gt;&lt;span style=&quot;background-color: initial;&quot;&gt;+ search(key): boolean&lt;/span&gt;&lt;/p&gt;" style="verticalAlign=top;align=left;overflow=fill;html=1;whiteSpace=wrap;fontFamily=Tahoma;" vertex="1" parent="KngEQsPvvqdOOyxPIZuh-1">
          <mxGeometry x="110" y="490" width="170" height="80" as="geometry" />
        </mxCell>
        <mxCell id="KngEQsPvvqdOOyxPIZuh-14" style="edgeStyle=orthogonalEdgeStyle;rounded=0;orthogonalLoop=1;jettySize=auto;html=1;entryX=0;entryY=0.25;entryDx=0;entryDy=0;endArrow=none;endFill=0;dashed=1;strokeColor=#FF8000;fontFamily=Tahoma;" edge="1" parent="KngEQsPvvqdOOyxPIZuh-1" source="KngEQsPvvqdOOyxPIZuh-13" target="KngEQsPvvqdOOyxPIZuh-9">
          <mxGeometry relative="1" as="geometry">
            <Array as="points">
              <mxPoint x="195" y="458" />
              <mxPoint x="540" y="458" />
            </Array>
          </mxGeometry>
        </mxCell>
      </root>
    </mxGraphModel>
  </diagram>
  <diagram id="U-X8xBjxNrovdJM0jmUm" name="visitor-pattern">
    <mxGraphModel dx="842" dy="465" grid="1" gridSize="10" guides="1" tooltips="1" connect="1" arrows="1" fold="1" page="1" pageScale="1" pageWidth="850" pageHeight="1100" math="0" shadow="0">
      <root>
        <mxCell id="0" />
        <mxCell id="1" parent="0" />
        <mxCell id="ZRFU6Esh0Je2WSf7lPe4-1" value="&amp;lt;&amp;lt;interface&amp;gt;&amp;gt; Visitor" style="swimlane;fontStyle=1;align=center;verticalAlign=top;childLayout=stackLayout;horizontal=1;startSize=26;horizontalStack=0;resizeParent=1;resizeParentMax=0;resizeLast=0;collapsible=1;marginBottom=0;whiteSpace=wrap;html=1;" vertex="1" parent="1">
          <mxGeometry x="180" y="100" width="160" height="68" as="geometry" />
        </mxCell>
        <mxCell id="ZRFU6Esh0Je2WSf7lPe4-2" value="+ visit (e: ElementA)&lt;br&gt;+ visit (e: ElementB)" style="text;strokeColor=none;fillColor=none;align=left;verticalAlign=top;spacingLeft=4;spacingRight=4;overflow=hidden;rotatable=0;points=[[0,0.5],[1,0.5]];portConstraint=eastwest;whiteSpace=wrap;html=1;" vertex="1" parent="ZRFU6Esh0Je2WSf7lPe4-1">
          <mxGeometry y="26" width="160" height="34" as="geometry" />
        </mxCell>
        <mxCell id="ZRFU6Esh0Je2WSf7lPe4-3" value="" style="line;strokeWidth=1;fillColor=none;align=left;verticalAlign=middle;spacingTop=-1;spacingLeft=3;spacingRight=3;rotatable=0;labelPosition=right;points=[];portConstraint=eastwest;strokeColor=inherit;" vertex="1" parent="ZRFU6Esh0Je2WSf7lPe4-1">
          <mxGeometry y="60" width="160" height="8" as="geometry" />
        </mxCell>
        <mxCell id="ZRFU6Esh0Je2WSf7lPe4-5" value="&amp;lt;&amp;lt;interface&amp;gt;&amp;gt; Element" style="swimlane;fontStyle=1;align=center;verticalAlign=top;childLayout=stackLayout;horizontal=1;startSize=26;horizontalStack=0;resizeParent=1;resizeParentMax=0;resizeLast=0;collapsible=1;marginBottom=0;whiteSpace=wrap;html=1;" vertex="1" parent="1">
          <mxGeometry x="480" y="105" width="160" height="58" as="geometry" />
        </mxCell>
        <mxCell id="ZRFU6Esh0Je2WSf7lPe4-6" value="+ accept(v: Visitor)" style="text;strokeColor=none;fillColor=none;align=left;verticalAlign=top;spacingLeft=4;spacingRight=4;overflow=hidden;rotatable=0;points=[[0,0.5],[1,0.5]];portConstraint=eastwest;whiteSpace=wrap;html=1;" vertex="1" parent="ZRFU6Esh0Je2WSf7lPe4-5">
          <mxGeometry y="26" width="160" height="24" as="geometry" />
        </mxCell>
        <mxCell id="ZRFU6Esh0Je2WSf7lPe4-7" value="" style="line;strokeWidth=1;fillColor=none;align=left;verticalAlign=middle;spacingTop=-1;spacingLeft=3;spacingRight=3;rotatable=0;labelPosition=right;points=[];portConstraint=eastwest;strokeColor=inherit;" vertex="1" parent="ZRFU6Esh0Je2WSf7lPe4-5">
          <mxGeometry y="50" width="160" height="8" as="geometry" />
        </mxCell>
        <mxCell id="ZRFU6Esh0Je2WSf7lPe4-8" style="edgeStyle=orthogonalEdgeStyle;rounded=0;orthogonalLoop=1;jettySize=auto;html=1;entryX=1;entryY=0.235;entryDx=0;entryDy=0;entryPerimeter=0;strokeColor=#FF8000;dashed=1;" edge="1" parent="1" source="ZRFU6Esh0Je2WSf7lPe4-5" target="ZRFU6Esh0Je2WSf7lPe4-2">
          <mxGeometry relative="1" as="geometry" />
        </mxCell>
        <mxCell id="ZRFU6Esh0Je2WSf7lPe4-26" style="edgeStyle=orthogonalEdgeStyle;rounded=0;orthogonalLoop=1;jettySize=auto;html=1;entryX=1;entryY=0.5;entryDx=0;entryDy=0;dashed=1;strokeColor=#FF8000;endArrow=block;endFill=0;" edge="1" parent="1" source="ZRFU6Esh0Je2WSf7lPe4-12" target="ZRFU6Esh0Je2WSf7lPe4-6">
          <mxGeometry relative="1" as="geometry">
            <Array as="points">
              <mxPoint x="660" y="290" />
              <mxPoint x="660" y="143" />
            </Array>
          </mxGeometry>
        </mxCell>
        <mxCell id="ZRFU6Esh0Je2WSf7lPe4-12" value="ConcreteElementA" style="swimlane;fontStyle=1;align=center;verticalAlign=top;childLayout=stackLayout;horizontal=1;startSize=26;horizontalStack=0;resizeParent=1;resizeParentMax=0;resizeLast=0;collapsible=1;marginBottom=0;whiteSpace=wrap;html=1;" vertex="1" parent="1">
          <mxGeometry x="480" y="240" width="160" height="100" as="geometry" />
        </mxCell>
        <mxCell id="ZRFU6Esh0Je2WSf7lPe4-13" value="..." style="text;strokeColor=none;fillColor=none;align=left;verticalAlign=top;spacingLeft=4;spacingRight=4;overflow=hidden;rotatable=0;points=[[0,0.5],[1,0.5]];portConstraint=eastwest;whiteSpace=wrap;html=1;" vertex="1" parent="ZRFU6Esh0Je2WSf7lPe4-12">
          <mxGeometry y="26" width="160" height="26" as="geometry" />
        </mxCell>
        <mxCell id="ZRFU6Esh0Je2WSf7lPe4-14" value="" style="line;strokeWidth=1;fillColor=none;align=left;verticalAlign=middle;spacingTop=-1;spacingLeft=3;spacingRight=3;rotatable=0;labelPosition=right;points=[];portConstraint=eastwest;strokeColor=inherit;" vertex="1" parent="ZRFU6Esh0Je2WSf7lPe4-12">
          <mxGeometry y="52" width="160" height="8" as="geometry" />
        </mxCell>
        <mxCell id="ZRFU6Esh0Je2WSf7lPe4-15" value="+ featureA()&lt;br&gt;+ accept(v: Visitor)" style="text;strokeColor=none;fillColor=none;align=left;verticalAlign=top;spacingLeft=4;spacingRight=4;overflow=hidden;rotatable=0;points=[[0,0.5],[1,0.5]];portConstraint=eastwest;whiteSpace=wrap;html=1;" vertex="1" parent="ZRFU6Esh0Je2WSf7lPe4-12">
          <mxGeometry y="60" width="160" height="40" as="geometry" />
        </mxCell>
        <mxCell id="ZRFU6Esh0Je2WSf7lPe4-16" value="ConcreteElementB" style="swimlane;fontStyle=1;align=center;verticalAlign=top;childLayout=stackLayout;horizontal=1;startSize=26;horizontalStack=0;resizeParent=1;resizeParentMax=0;resizeLast=0;collapsible=1;marginBottom=0;whiteSpace=wrap;html=1;" vertex="1" parent="1">
          <mxGeometry x="480" y="370" width="160" height="100" as="geometry" />
        </mxCell>
        <mxCell id="ZRFU6Esh0Je2WSf7lPe4-17" value="..." style="text;strokeColor=none;fillColor=none;align=left;verticalAlign=top;spacingLeft=4;spacingRight=4;overflow=hidden;rotatable=0;points=[[0,0.5],[1,0.5]];portConstraint=eastwest;whiteSpace=wrap;html=1;" vertex="1" parent="ZRFU6Esh0Je2WSf7lPe4-16">
          <mxGeometry y="26" width="160" height="26" as="geometry" />
        </mxCell>
        <mxCell id="ZRFU6Esh0Je2WSf7lPe4-18" value="" style="line;strokeWidth=1;fillColor=none;align=left;verticalAlign=middle;spacingTop=-1;spacingLeft=3;spacingRight=3;rotatable=0;labelPosition=right;points=[];portConstraint=eastwest;strokeColor=inherit;" vertex="1" parent="ZRFU6Esh0Je2WSf7lPe4-16">
          <mxGeometry y="52" width="160" height="8" as="geometry" />
        </mxCell>
        <mxCell id="ZRFU6Esh0Je2WSf7lPe4-19" value="+ featureB()&lt;br&gt;+ accept(v: Visitor)" style="text;strokeColor=none;fillColor=none;align=left;verticalAlign=top;spacingLeft=4;spacingRight=4;overflow=hidden;rotatable=0;points=[[0,0.5],[1,0.5]];portConstraint=eastwest;whiteSpace=wrap;html=1;" vertex="1" parent="ZRFU6Esh0Je2WSf7lPe4-16">
          <mxGeometry y="60" width="160" height="40" as="geometry" />
        </mxCell>
        <mxCell id="ZRFU6Esh0Je2WSf7lPe4-20" value="ConcreteVisitors" style="swimlane;fontStyle=1;align=center;verticalAlign=top;childLayout=stackLayout;horizontal=1;startSize=26;horizontalStack=0;resizeParent=1;resizeParentMax=0;resizeLast=0;collapsible=1;marginBottom=0;whiteSpace=wrap;html=1;" vertex="1" parent="1">
          <mxGeometry x="180" y="230" width="160" height="100" as="geometry" />
        </mxCell>
        <mxCell id="ZRFU6Esh0Je2WSf7lPe4-21" value="..." style="text;strokeColor=none;fillColor=none;align=left;verticalAlign=top;spacingLeft=4;spacingRight=4;overflow=hidden;rotatable=0;points=[[0,0.5],[1,0.5]];portConstraint=eastwest;whiteSpace=wrap;html=1;" vertex="1" parent="ZRFU6Esh0Je2WSf7lPe4-20">
          <mxGeometry y="26" width="160" height="26" as="geometry" />
        </mxCell>
        <mxCell id="ZRFU6Esh0Je2WSf7lPe4-22" value="" style="line;strokeWidth=1;fillColor=none;align=left;verticalAlign=middle;spacingTop=-1;spacingLeft=3;spacingRight=3;rotatable=0;labelPosition=right;points=[];portConstraint=eastwest;strokeColor=inherit;" vertex="1" parent="ZRFU6Esh0Je2WSf7lPe4-20">
          <mxGeometry y="52" width="160" height="8" as="geometry" />
        </mxCell>
        <mxCell id="ZRFU6Esh0Je2WSf7lPe4-23" value="+ visit(e: ElementA)&lt;div&gt;+ visit(e: ElementB)&lt;/div&gt;" style="text;strokeColor=none;fillColor=none;align=left;verticalAlign=top;spacingLeft=4;spacingRight=4;overflow=hidden;rotatable=0;points=[[0,0.5],[1,0.5]];portConstraint=eastwest;whiteSpace=wrap;html=1;" vertex="1" parent="ZRFU6Esh0Je2WSf7lPe4-20">
          <mxGeometry y="60" width="160" height="40" as="geometry" />
        </mxCell>
        <mxCell id="ZRFU6Esh0Je2WSf7lPe4-24" style="edgeStyle=orthogonalEdgeStyle;rounded=0;orthogonalLoop=1;jettySize=auto;html=1;entryX=0;entryY=0.5;entryDx=0;entryDy=0;dashed=1;strokeColor=#FF8000;" edge="1" parent="1" source="ZRFU6Esh0Je2WSf7lPe4-2" target="ZRFU6Esh0Je2WSf7lPe4-13">
          <mxGeometry relative="1" as="geometry" />
        </mxCell>
        <mxCell id="ZRFU6Esh0Je2WSf7lPe4-25" style="edgeStyle=orthogonalEdgeStyle;rounded=0;orthogonalLoop=1;jettySize=auto;html=1;entryX=0;entryY=0.5;entryDx=0;entryDy=0;dashed=1;strokeColor=#FF8000;" edge="1" parent="1" source="ZRFU6Esh0Je2WSf7lPe4-2" target="ZRFU6Esh0Je2WSf7lPe4-17">
          <mxGeometry relative="1" as="geometry" />
        </mxCell>
        <mxCell id="ZRFU6Esh0Je2WSf7lPe4-27" style="edgeStyle=orthogonalEdgeStyle;rounded=0;orthogonalLoop=1;jettySize=auto;html=1;entryX=1;entryY=0.5;entryDx=0;entryDy=0;dashed=1;strokeColor=#FF8000;endArrow=block;endFill=0;" edge="1" parent="1" source="ZRFU6Esh0Je2WSf7lPe4-17" target="ZRFU6Esh0Je2WSf7lPe4-6">
          <mxGeometry relative="1" as="geometry">
            <Array as="points">
              <mxPoint x="680" y="409" />
              <mxPoint x="680" y="143" />
            </Array>
          </mxGeometry>
        </mxCell>
        <mxCell id="ZRFU6Esh0Je2WSf7lPe4-28" value="Visitor methods know the &lt;br&gt;concrete type of the element&lt;br&gt;it works with" style="ellipse;shape=cloud;whiteSpace=wrap;html=1;fillColor=#eeeeee;strokeColor=#36393d;" vertex="1" parent="1">
          <mxGeometry x="150" y="380" width="210" height="131" as="geometry" />
        </mxCell>
        <mxCell id="ZRFU6Esh0Je2WSf7lPe4-29" value="v.visit(this)" style="ellipse;shape=cloud;whiteSpace=wrap;html=1;fillColor=#eeeeee;strokeColor=#36393d;" vertex="1" parent="1">
          <mxGeometry x="500" y="520" width="100" height="60" as="geometry" />
        </mxCell>
        <mxCell id="ZRFU6Esh0Je2WSf7lPe4-30" style="edgeStyle=orthogonalEdgeStyle;rounded=0;orthogonalLoop=1;jettySize=auto;html=1;entryX=0.439;entryY=0.987;entryDx=0;entryDy=0;entryPerimeter=0;endArrow=none;endFill=0;dashed=1;strokeColor=#808080;" edge="1" parent="1" source="ZRFU6Esh0Je2WSf7lPe4-29" target="ZRFU6Esh0Je2WSf7lPe4-19">
          <mxGeometry relative="1" as="geometry" />
        </mxCell>
        <mxCell id="ZRFU6Esh0Je2WSf7lPe4-31" style="edgeStyle=orthogonalEdgeStyle;rounded=0;orthogonalLoop=1;jettySize=auto;html=1;entryX=0.472;entryY=1.004;entryDx=0;entryDy=0;entryPerimeter=0;dashed=1;endArrow=none;endFill=0;strokeColor=#808080;" edge="1" parent="1" source="ZRFU6Esh0Je2WSf7lPe4-28" target="ZRFU6Esh0Je2WSf7lPe4-23">
          <mxGeometry relative="1" as="geometry" />
        </mxCell>
        <mxCell id="ZRFU6Esh0Je2WSf7lPe4-34" style="edgeStyle=orthogonalEdgeStyle;rounded=0;orthogonalLoop=1;jettySize=auto;html=1;entryX=1;entryY=0.25;entryDx=0;entryDy=0;endArrow=open;endFill=0;dashed=1;strokeColor=#FF8000;" edge="1" parent="1" source="ZRFU6Esh0Je2WSf7lPe4-32" target="ZRFU6Esh0Je2WSf7lPe4-5">
          <mxGeometry relative="1" as="geometry">
            <Array as="points">
              <mxPoint x="710" y="615" />
              <mxPoint x="710" y="119" />
            </Array>
          </mxGeometry>
        </mxCell>
        <mxCell id="ZRFU6Esh0Je2WSf7lPe4-32" value="Client" style="rounded=0;whiteSpace=wrap;html=1;fillColor=#cdeb8b;strokeColor=#36393d;" vertex="1" parent="1">
          <mxGeometry x="320" y="600" width="95" height="30" as="geometry" />
        </mxCell>
        <mxCell id="ZRFU6Esh0Je2WSf7lPe4-33" style="edgeStyle=orthogonalEdgeStyle;rounded=0;orthogonalLoop=1;jettySize=auto;html=1;entryX=-0.005;entryY=0.156;entryDx=0;entryDy=0;entryPerimeter=0;dashed=1;endArrow=open;endFill=0;strokeColor=#FF8000;" edge="1" parent="1" source="ZRFU6Esh0Je2WSf7lPe4-32" target="ZRFU6Esh0Je2WSf7lPe4-20">
          <mxGeometry relative="1" as="geometry">
            <Array as="points">
              <mxPoint x="160" y="615" />
              <mxPoint x="160" y="246" />
            </Array>
          </mxGeometry>
        </mxCell>
        <mxCell id="ZRFU6Esh0Je2WSf7lPe4-36" style="edgeStyle=orthogonalEdgeStyle;rounded=0;orthogonalLoop=1;jettySize=auto;html=1;entryX=0.5;entryY=1;entryDx=0;entryDy=0;endArrow=none;endFill=0;dashed=1;strokeColor=#808080;" edge="1" parent="1" source="ZRFU6Esh0Je2WSf7lPe4-35" target="ZRFU6Esh0Je2WSf7lPe4-32">
          <mxGeometry relative="1" as="geometry" />
        </mxCell>
        <mxCell id="ZRFU6Esh0Je2WSf7lPe4-35" value="element.accept(new ConcreteVisitor())" style="rounded=0;whiteSpace=wrap;html=1;fillColor=#ffff88;strokeColor=#36393d;" vertex="1" parent="1">
          <mxGeometry x="230" y="680" width="275" height="30" as="geometry" />
        </mxCell>
      </root>
    </mxGraphModel>
  </diagram>
  <diagram name="example-visitor-pattern" id="FDjcUvGZVelVOOU2SyI_">
    <mxGraphModel dx="698" dy="385" grid="1" gridSize="10" guides="1" tooltips="1" connect="1" arrows="1" fold="1" page="1" pageScale="1" pageWidth="850" pageHeight="1100" math="0" shadow="0">
      <root>
        <mxCell id="RB6NDr4WMiOqTJMNek3k-0" />
        <mxCell id="RB6NDr4WMiOqTJMNek3k-1" parent="RB6NDr4WMiOqTJMNek3k-0" />
        <mxCell id="RB6NDr4WMiOqTJMNek3k-2" value="&amp;lt;&amp;lt;interface&amp;gt;&amp;gt; Visitor" style="swimlane;fontStyle=1;align=center;verticalAlign=top;childLayout=stackLayout;horizontal=1;startSize=26;horizontalStack=0;resizeParent=1;resizeParentMax=0;resizeLast=0;collapsible=1;marginBottom=0;whiteSpace=wrap;html=1;" vertex="1" parent="RB6NDr4WMiOqTJMNek3k-1">
          <mxGeometry x="180" y="100" width="200" height="78" as="geometry" />
        </mxCell>
        <mxCell id="RB6NDr4WMiOqTJMNek3k-3" value="+ visitForCircle(e: *Circle)&lt;div&gt;+ visitForSquare(e: *Square)&lt;br&gt;&lt;/div&gt;" style="text;strokeColor=none;fillColor=none;align=left;verticalAlign=top;spacingLeft=4;spacingRight=4;overflow=hidden;rotatable=0;points=[[0,0.5],[1,0.5]];portConstraint=eastwest;whiteSpace=wrap;html=1;" vertex="1" parent="RB6NDr4WMiOqTJMNek3k-2">
          <mxGeometry y="26" width="200" height="44" as="geometry" />
        </mxCell>
        <mxCell id="RB6NDr4WMiOqTJMNek3k-4" value="" style="line;strokeWidth=1;fillColor=none;align=left;verticalAlign=middle;spacingTop=-1;spacingLeft=3;spacingRight=3;rotatable=0;labelPosition=right;points=[];portConstraint=eastwest;strokeColor=inherit;" vertex="1" parent="RB6NDr4WMiOqTJMNek3k-2">
          <mxGeometry y="70" width="200" height="8" as="geometry" />
        </mxCell>
        <mxCell id="RB6NDr4WMiOqTJMNek3k-5" value="&amp;lt;&amp;lt;interface&amp;gt;&amp;gt; Shape" style="swimlane;fontStyle=1;align=center;verticalAlign=top;childLayout=stackLayout;horizontal=1;startSize=26;horizontalStack=0;resizeParent=1;resizeParentMax=0;resizeLast=0;collapsible=1;marginBottom=0;whiteSpace=wrap;html=1;" vertex="1" parent="RB6NDr4WMiOqTJMNek3k-1">
          <mxGeometry x="470" y="100" width="160" height="78" as="geometry" />
        </mxCell>
        <mxCell id="RB6NDr4WMiOqTJMNek3k-6" value="+ accept(v: Visitor)&lt;br&gt;+ getType(): string" style="text;strokeColor=none;fillColor=none;align=left;verticalAlign=top;spacingLeft=4;spacingRight=4;overflow=hidden;rotatable=0;points=[[0,0.5],[1,0.5]];portConstraint=eastwest;whiteSpace=wrap;html=1;" vertex="1" parent="RB6NDr4WMiOqTJMNek3k-5">
          <mxGeometry y="26" width="160" height="44" as="geometry" />
        </mxCell>
        <mxCell id="RB6NDr4WMiOqTJMNek3k-7" value="" style="line;strokeWidth=1;fillColor=none;align=left;verticalAlign=middle;spacingTop=-1;spacingLeft=3;spacingRight=3;rotatable=0;labelPosition=right;points=[];portConstraint=eastwest;strokeColor=inherit;" vertex="1" parent="RB6NDr4WMiOqTJMNek3k-5">
          <mxGeometry y="70" width="160" height="8" as="geometry" />
        </mxCell>
        <mxCell id="RB6NDr4WMiOqTJMNek3k-8" style="edgeStyle=orthogonalEdgeStyle;rounded=0;orthogonalLoop=1;jettySize=auto;html=1;entryX=1.004;entryY=0.151;entryDx=0;entryDy=0;entryPerimeter=0;strokeColor=#FF8000;dashed=1;" edge="1" parent="RB6NDr4WMiOqTJMNek3k-1" source="RB6NDr4WMiOqTJMNek3k-5" target="RB6NDr4WMiOqTJMNek3k-3">
          <mxGeometry relative="1" as="geometry" />
        </mxCell>
        <mxCell id="RB6NDr4WMiOqTJMNek3k-9" style="edgeStyle=orthogonalEdgeStyle;rounded=0;orthogonalLoop=1;jettySize=auto;html=1;dashed=1;strokeColor=#FF8000;endArrow=block;endFill=0;" edge="1" parent="RB6NDr4WMiOqTJMNek3k-1" source="RB6NDr4WMiOqTJMNek3k-10" target="RB6NDr4WMiOqTJMNek3k-6">
          <mxGeometry relative="1" as="geometry">
            <Array as="points">
              <mxPoint x="660" y="290" />
              <mxPoint x="660" y="143" />
            </Array>
          </mxGeometry>
        </mxCell>
        <mxCell id="RB6NDr4WMiOqTJMNek3k-10" value="Circle" style="swimlane;fontStyle=1;align=center;verticalAlign=top;childLayout=stackLayout;horizontal=1;startSize=26;horizontalStack=0;resizeParent=1;resizeParentMax=0;resizeLast=0;collapsible=1;marginBottom=0;whiteSpace=wrap;html=1;" vertex="1" parent="RB6NDr4WMiOqTJMNek3k-1">
          <mxGeometry x="480" y="240" width="160" height="100" as="geometry" />
        </mxCell>
        <mxCell id="RB6NDr4WMiOqTJMNek3k-11" value="- radius: int" style="text;strokeColor=none;fillColor=none;align=left;verticalAlign=top;spacingLeft=4;spacingRight=4;overflow=hidden;rotatable=0;points=[[0,0.5],[1,0.5]];portConstraint=eastwest;whiteSpace=wrap;html=1;" vertex="1" parent="RB6NDr4WMiOqTJMNek3k-10">
          <mxGeometry y="26" width="160" height="26" as="geometry" />
        </mxCell>
        <mxCell id="RB6NDr4WMiOqTJMNek3k-12" value="" style="line;strokeWidth=1;fillColor=none;align=left;verticalAlign=middle;spacingTop=-1;spacingLeft=3;spacingRight=3;rotatable=0;labelPosition=right;points=[];portConstraint=eastwest;strokeColor=inherit;" vertex="1" parent="RB6NDr4WMiOqTJMNek3k-10">
          <mxGeometry y="52" width="160" height="8" as="geometry" />
        </mxCell>
        <mxCell id="RB6NDr4WMiOqTJMNek3k-13" value="+ accept(v: Visitor)&lt;br&gt;+ getType(): string" style="text;strokeColor=none;fillColor=none;align=left;verticalAlign=top;spacingLeft=4;spacingRight=4;overflow=hidden;rotatable=0;points=[[0,0.5],[1,0.5]];portConstraint=eastwest;whiteSpace=wrap;html=1;" vertex="1" parent="RB6NDr4WMiOqTJMNek3k-10">
          <mxGeometry y="60" width="160" height="40" as="geometry" />
        </mxCell>
        <mxCell id="RB6NDr4WMiOqTJMNek3k-14" value="Square" style="swimlane;fontStyle=1;align=center;verticalAlign=top;childLayout=stackLayout;horizontal=1;startSize=26;horizontalStack=0;resizeParent=1;resizeParentMax=0;resizeLast=0;collapsible=1;marginBottom=0;whiteSpace=wrap;html=1;" vertex="1" parent="RB6NDr4WMiOqTJMNek3k-1">
          <mxGeometry x="480" y="370" width="160" height="100" as="geometry" />
        </mxCell>
        <mxCell id="RB6NDr4WMiOqTJMNek3k-15" value="- side: int" style="text;strokeColor=none;fillColor=none;align=left;verticalAlign=top;spacingLeft=4;spacingRight=4;overflow=hidden;rotatable=0;points=[[0,0.5],[1,0.5]];portConstraint=eastwest;whiteSpace=wrap;html=1;" vertex="1" parent="RB6NDr4WMiOqTJMNek3k-14">
          <mxGeometry y="26" width="160" height="26" as="geometry" />
        </mxCell>
        <mxCell id="RB6NDr4WMiOqTJMNek3k-16" value="" style="line;strokeWidth=1;fillColor=none;align=left;verticalAlign=middle;spacingTop=-1;spacingLeft=3;spacingRight=3;rotatable=0;labelPosition=right;points=[];portConstraint=eastwest;strokeColor=inherit;" vertex="1" parent="RB6NDr4WMiOqTJMNek3k-14">
          <mxGeometry y="52" width="160" height="8" as="geometry" />
        </mxCell>
        <mxCell id="RB6NDr4WMiOqTJMNek3k-17" value="+ accept(v: Visitor)&lt;br&gt;+ getType(): string" style="text;strokeColor=none;fillColor=none;align=left;verticalAlign=top;spacingLeft=4;spacingRight=4;overflow=hidden;rotatable=0;points=[[0,0.5],[1,0.5]];portConstraint=eastwest;whiteSpace=wrap;html=1;" vertex="1" parent="RB6NDr4WMiOqTJMNek3k-14">
          <mxGeometry y="60" width="160" height="40" as="geometry" />
        </mxCell>
        <mxCell id="RB6NDr4WMiOqTJMNek3k-18" value="AreaCalculator" style="swimlane;fontStyle=1;align=center;verticalAlign=top;childLayout=stackLayout;horizontal=1;startSize=26;horizontalStack=0;resizeParent=1;resizeParentMax=0;resizeLast=0;collapsible=1;marginBottom=0;whiteSpace=wrap;html=1;" vertex="1" parent="RB6NDr4WMiOqTJMNek3k-1">
          <mxGeometry x="180" y="230" width="190" height="100" as="geometry" />
        </mxCell>
        <mxCell id="RB6NDr4WMiOqTJMNek3k-19" value="- area: int" style="text;strokeColor=none;fillColor=none;align=left;verticalAlign=top;spacingLeft=4;spacingRight=4;overflow=hidden;rotatable=0;points=[[0,0.5],[1,0.5]];portConstraint=eastwest;whiteSpace=wrap;html=1;" vertex="1" parent="RB6NDr4WMiOqTJMNek3k-18">
          <mxGeometry y="26" width="190" height="26" as="geometry" />
        </mxCell>
        <mxCell id="RB6NDr4WMiOqTJMNek3k-20" value="" style="line;strokeWidth=1;fillColor=none;align=left;verticalAlign=middle;spacingTop=-1;spacingLeft=3;spacingRight=3;rotatable=0;labelPosition=right;points=[];portConstraint=eastwest;strokeColor=inherit;" vertex="1" parent="RB6NDr4WMiOqTJMNek3k-18">
          <mxGeometry y="52" width="190" height="8" as="geometry" />
        </mxCell>
        <mxCell id="RB6NDr4WMiOqTJMNek3k-21" value="+ visitForCircle(e: *Circle)&lt;div&gt;+ visitForSquare(e: *Square)&lt;/div&gt;" style="text;strokeColor=none;fillColor=none;align=left;verticalAlign=top;spacingLeft=4;spacingRight=4;overflow=hidden;rotatable=0;points=[[0,0.5],[1,0.5]];portConstraint=eastwest;whiteSpace=wrap;html=1;" vertex="1" parent="RB6NDr4WMiOqTJMNek3k-18">
          <mxGeometry y="60" width="190" height="40" as="geometry" />
        </mxCell>
        <mxCell id="RB6NDr4WMiOqTJMNek3k-22" style="edgeStyle=orthogonalEdgeStyle;rounded=0;orthogonalLoop=1;jettySize=auto;html=1;entryX=0;entryY=0.5;entryDx=0;entryDy=0;dashed=1;strokeColor=#FF8000;" edge="1" parent="RB6NDr4WMiOqTJMNek3k-1" source="RB6NDr4WMiOqTJMNek3k-3" target="RB6NDr4WMiOqTJMNek3k-11">
          <mxGeometry relative="1" as="geometry" />
        </mxCell>
        <mxCell id="RB6NDr4WMiOqTJMNek3k-23" style="edgeStyle=orthogonalEdgeStyle;rounded=0;orthogonalLoop=1;jettySize=auto;html=1;entryX=0;entryY=0.5;entryDx=0;entryDy=0;dashed=1;strokeColor=#FF8000;" edge="1" parent="RB6NDr4WMiOqTJMNek3k-1" source="RB6NDr4WMiOqTJMNek3k-3" target="RB6NDr4WMiOqTJMNek3k-15">
          <mxGeometry relative="1" as="geometry" />
        </mxCell>
        <mxCell id="RB6NDr4WMiOqTJMNek3k-24" style="edgeStyle=orthogonalEdgeStyle;rounded=0;orthogonalLoop=1;jettySize=auto;html=1;entryX=1.005;entryY=0.39;entryDx=0;entryDy=0;dashed=1;strokeColor=#FF8000;endArrow=block;endFill=0;entryPerimeter=0;" edge="1" parent="RB6NDr4WMiOqTJMNek3k-1" source="RB6NDr4WMiOqTJMNek3k-15" target="RB6NDr4WMiOqTJMNek3k-6">
          <mxGeometry relative="1" as="geometry">
            <Array as="points">
              <mxPoint x="680" y="409" />
              <mxPoint x="680" y="143" />
              <mxPoint x="631" y="143" />
            </Array>
          </mxGeometry>
        </mxCell>
        <mxCell id="RB6NDr4WMiOqTJMNek3k-29" style="edgeStyle=orthogonalEdgeStyle;rounded=0;orthogonalLoop=1;jettySize=auto;html=1;entryX=1;entryY=0.25;entryDx=0;entryDy=0;endArrow=open;endFill=0;dashed=1;strokeColor=#FF8000;" edge="1" parent="RB6NDr4WMiOqTJMNek3k-1" source="RB6NDr4WMiOqTJMNek3k-30" target="RB6NDr4WMiOqTJMNek3k-5">
          <mxGeometry relative="1" as="geometry">
            <Array as="points">
              <mxPoint x="710" y="615" />
              <mxPoint x="710" y="119" />
            </Array>
          </mxGeometry>
        </mxCell>
        <mxCell id="t9U1xQgUuuwo1pUJ6QCn-4" style="edgeStyle=orthogonalEdgeStyle;rounded=0;orthogonalLoop=1;jettySize=auto;html=1;endArrow=open;endFill=0;dashed=1;strokeColor=#FF8000;" edge="1" parent="RB6NDr4WMiOqTJMNek3k-1" source="RB6NDr4WMiOqTJMNek3k-30" target="t9U1xQgUuuwo1pUJ6QCn-3">
          <mxGeometry relative="1" as="geometry">
            <Array as="points">
              <mxPoint x="390" y="440" />
            </Array>
          </mxGeometry>
        </mxCell>
        <mxCell id="RB6NDr4WMiOqTJMNek3k-30" value="Client" style="rounded=0;whiteSpace=wrap;html=1;fillColor=#cdeb8b;strokeColor=#36393d;" vertex="1" parent="RB6NDr4WMiOqTJMNek3k-1">
          <mxGeometry x="320" y="600" width="95" height="30" as="geometry" />
        </mxCell>
        <mxCell id="RB6NDr4WMiOqTJMNek3k-31" style="edgeStyle=orthogonalEdgeStyle;rounded=0;orthogonalLoop=1;jettySize=auto;html=1;entryX=-0.005;entryY=0.156;entryDx=0;entryDy=0;entryPerimeter=0;dashed=1;endArrow=open;endFill=0;strokeColor=#FF8000;" edge="1" parent="RB6NDr4WMiOqTJMNek3k-1" source="RB6NDr4WMiOqTJMNek3k-30" target="RB6NDr4WMiOqTJMNek3k-18">
          <mxGeometry relative="1" as="geometry">
            <Array as="points">
              <mxPoint x="160" y="615" />
              <mxPoint x="160" y="246" />
            </Array>
          </mxGeometry>
        </mxCell>
        <mxCell id="t9U1xQgUuuwo1pUJ6QCn-0" value="MiddleCoordinates" style="swimlane;fontStyle=1;align=center;verticalAlign=top;childLayout=stackLayout;horizontal=1;startSize=26;horizontalStack=0;resizeParent=1;resizeParentMax=0;resizeLast=0;collapsible=1;marginBottom=0;whiteSpace=wrap;html=1;" vertex="1" parent="RB6NDr4WMiOqTJMNek3k-1">
          <mxGeometry x="180" y="360" width="190" height="100" as="geometry" />
        </mxCell>
        <mxCell id="t9U1xQgUuuwo1pUJ6QCn-1" value="- x, y: int" style="text;strokeColor=none;fillColor=none;align=left;verticalAlign=top;spacingLeft=4;spacingRight=4;overflow=hidden;rotatable=0;points=[[0,0.5],[1,0.5]];portConstraint=eastwest;whiteSpace=wrap;html=1;" vertex="1" parent="t9U1xQgUuuwo1pUJ6QCn-0">
          <mxGeometry y="26" width="190" height="26" as="geometry" />
        </mxCell>
        <mxCell id="t9U1xQgUuuwo1pUJ6QCn-2" value="" style="line;strokeWidth=1;fillColor=none;align=left;verticalAlign=middle;spacingTop=-1;spacingLeft=3;spacingRight=3;rotatable=0;labelPosition=right;points=[];portConstraint=eastwest;strokeColor=inherit;" vertex="1" parent="t9U1xQgUuuwo1pUJ6QCn-0">
          <mxGeometry y="52" width="190" height="8" as="geometry" />
        </mxCell>
        <mxCell id="t9U1xQgUuuwo1pUJ6QCn-3" value="+ visitForCircle(e: *Circle)&lt;div&gt;+ visitForSquare(e: *Square)&lt;/div&gt;" style="text;strokeColor=none;fillColor=none;align=left;verticalAlign=top;spacingLeft=4;spacingRight=4;overflow=hidden;rotatable=0;points=[[0,0.5],[1,0.5]];portConstraint=eastwest;whiteSpace=wrap;html=1;" vertex="1" parent="t9U1xQgUuuwo1pUJ6QCn-0">
          <mxGeometry y="60" width="190" height="40" as="geometry" />
        </mxCell>
      </root>
    </mxGraphModel>
  </diagram>
  <diagram id="c-ZFm5TX8qypF9KkQFP8" name="proxy-pattern">
    <mxGraphModel dx="606" dy="674" grid="1" gridSize="10" guides="1" tooltips="1" connect="1" arrows="1" fold="1" page="1" pageScale="1" pageWidth="850" pageHeight="1100" math="0" shadow="0">
      <root>
        <mxCell id="0" />
        <mxCell id="1" parent="0" />
        <mxCell id="tZOPens_ip9xz6_iqIMk-3" value="" style="edgeStyle=orthogonalEdgeStyle;rounded=0;orthogonalLoop=1;jettySize=auto;html=1;strokeColor=#FF8000;" edge="1" parent="1" source="tZOPens_ip9xz6_iqIMk-1">
          <mxGeometry relative="1" as="geometry">
            <mxPoint x="380" y="260" as="targetPoint" />
          </mxGeometry>
        </mxCell>
        <mxCell id="tZOPens_ip9xz6_iqIMk-1" value="Client" style="rounded=0;whiteSpace=wrap;html=1;fillColor=#cdeb8b;strokeColor=#36393d;" vertex="1" parent="1">
          <mxGeometry x="340" y="150" width="80" height="40" as="geometry" />
        </mxCell>
        <mxCell id="tZOPens_ip9xz6_iqIMk-4" value="&lt;b&gt;&amp;lt;&amp;lt;interface&amp;gt;&amp;gt; ServiceInterface&lt;/b&gt;" style="swimlane;fontStyle=0;childLayout=stackLayout;horizontal=1;startSize=26;fillColor=none;horizontalStack=0;resizeParent=1;resizeParentMax=0;resizeLast=0;collapsible=1;marginBottom=0;whiteSpace=wrap;html=1;" vertex="1" parent="1">
          <mxGeometry x="260" y="260" width="250" height="52" as="geometry" />
        </mxCell>
        <mxCell id="tZOPens_ip9xz6_iqIMk-5" value="+ operation()" style="text;strokeColor=none;fillColor=none;align=left;verticalAlign=top;spacingLeft=4;spacingRight=4;overflow=hidden;rotatable=0;points=[[0,0.5],[1,0.5]];portConstraint=eastwest;whiteSpace=wrap;html=1;" vertex="1" parent="tZOPens_ip9xz6_iqIMk-4">
          <mxGeometry y="26" width="250" height="26" as="geometry" />
        </mxCell>
        <mxCell id="tZOPens_ip9xz6_iqIMk-10" style="edgeStyle=orthogonalEdgeStyle;rounded=0;orthogonalLoop=1;jettySize=auto;html=1;dashed=1;endArrow=block;endFill=0;strokeColor=#FF8000;" edge="1" parent="1" source="tZOPens_ip9xz6_iqIMk-8" target="tZOPens_ip9xz6_iqIMk-5">
          <mxGeometry relative="1" as="geometry">
            <Array as="points">
              <mxPoint x="560" y="360" />
              <mxPoint x="380" y="360" />
            </Array>
          </mxGeometry>
        </mxCell>
        <mxCell id="tZOPens_ip9xz6_iqIMk-8" value="&lt;b&gt;Service&lt;/b&gt;" style="swimlane;fontStyle=0;childLayout=stackLayout;horizontal=1;startSize=26;fillColor=none;horizontalStack=0;resizeParent=1;resizeParentMax=0;resizeLast=0;collapsible=1;marginBottom=0;whiteSpace=wrap;html=1;" vertex="1" parent="1">
          <mxGeometry x="510" y="390" width="100" height="58" as="geometry" />
        </mxCell>
        <mxCell id="tZOPens_ip9xz6_iqIMk-9" value="+ operation()" style="text;strokeColor=none;fillColor=none;align=left;verticalAlign=top;spacingLeft=4;spacingRight=4;overflow=hidden;rotatable=0;points=[[0,0.5],[1,0.5]];portConstraint=eastwest;whiteSpace=wrap;html=1;" vertex="1" parent="tZOPens_ip9xz6_iqIMk-8">
          <mxGeometry y="26" width="100" height="32" as="geometry" />
        </mxCell>
        <mxCell id="tZOPens_ip9xz6_iqIMk-11" value="Proxy" style="swimlane;fontStyle=1;align=center;verticalAlign=top;childLayout=stackLayout;horizontal=1;startSize=26;horizontalStack=0;resizeParent=1;resizeParentMax=0;resizeLast=0;collapsible=1;marginBottom=0;whiteSpace=wrap;html=1;" vertex="1" parent="1">
          <mxGeometry x="150" y="372" width="160" height="120" as="geometry" />
        </mxCell>
        <mxCell id="tZOPens_ip9xz6_iqIMk-12" value="- realService: Service" style="text;strokeColor=none;fillColor=none;align=left;verticalAlign=top;spacingLeft=4;spacingRight=4;overflow=hidden;rotatable=0;points=[[0,0.5],[1,0.5]];portConstraint=eastwest;whiteSpace=wrap;html=1;" vertex="1" parent="tZOPens_ip9xz6_iqIMk-11">
          <mxGeometry y="26" width="160" height="26" as="geometry" />
        </mxCell>
        <mxCell id="tZOPens_ip9xz6_iqIMk-13" value="" style="line;strokeWidth=1;fillColor=none;align=left;verticalAlign=middle;spacingTop=-1;spacingLeft=3;spacingRight=3;rotatable=0;labelPosition=right;points=[];portConstraint=eastwest;strokeColor=inherit;" vertex="1" parent="tZOPens_ip9xz6_iqIMk-11">
          <mxGeometry y="52" width="160" height="8" as="geometry" />
        </mxCell>
        <mxCell id="tZOPens_ip9xz6_iqIMk-14" value="+ Proxy(s: Service)&lt;br&gt;+ checkAccess()&lt;br&gt;+ operation()" style="text;strokeColor=none;fillColor=none;align=left;verticalAlign=top;spacingLeft=4;spacingRight=4;overflow=hidden;rotatable=0;points=[[0,0.5],[1,0.5]];portConstraint=eastwest;whiteSpace=wrap;html=1;" vertex="1" parent="tZOPens_ip9xz6_iqIMk-11">
          <mxGeometry y="60" width="160" height="60" as="geometry" />
        </mxCell>
        <mxCell id="tZOPens_ip9xz6_iqIMk-16" style="edgeStyle=orthogonalEdgeStyle;rounded=0;orthogonalLoop=1;jettySize=auto;html=1;dashed=1;endArrow=none;endFill=0;strokeColor=#808080;" edge="1" parent="1" source="tZOPens_ip9xz6_iqIMk-15" target="tZOPens_ip9xz6_iqIMk-14">
          <mxGeometry relative="1" as="geometry">
            <Array as="points">
              <mxPoint x="230" y="500" />
              <mxPoint x="230" y="500" />
            </Array>
          </mxGeometry>
        </mxCell>
        <mxCell id="tZOPens_ip9xz6_iqIMk-15" value="if (checkAccess()) {&lt;div&gt;&lt;span style=&quot;white-space: pre;&quot;&gt;&#x9;&lt;/span&gt;realService.operation()&lt;br&gt;}&lt;/div&gt;" style="rounded=0;whiteSpace=wrap;html=1;align=left;fillColor=#eeeeee;strokeColor=#36393d;" vertex="1" parent="1">
          <mxGeometry x="150" y="550" width="160" height="60" as="geometry" />
        </mxCell>
        <mxCell id="tZOPens_ip9xz6_iqIMk-18" style="edgeStyle=orthogonalEdgeStyle;rounded=0;orthogonalLoop=1;jettySize=auto;html=1;endArrow=none;endFill=0;dashed=1;strokeColor=#808080;" edge="1" parent="1" source="tZOPens_ip9xz6_iqIMk-17" target="tZOPens_ip9xz6_iqIMk-14">
          <mxGeometry relative="1" as="geometry" />
        </mxCell>
        <mxCell id="tZOPens_ip9xz6_iqIMk-17" value="realService = s" style="rounded=0;whiteSpace=wrap;html=1;align=center;fillColor=#eeeeee;strokeColor=#36393d;" vertex="1" parent="1">
          <mxGeometry x="370" y="530" width="100" height="40" as="geometry" />
        </mxCell>
        <mxCell id="tZOPens_ip9xz6_iqIMk-19" style="edgeStyle=orthogonalEdgeStyle;rounded=0;orthogonalLoop=1;jettySize=auto;html=1;entryX=0.479;entryY=1.013;entryDx=0;entryDy=0;entryPerimeter=0;dashed=1;endArrow=block;endFill=0;strokeColor=#FF8000;" edge="1" parent="1" source="tZOPens_ip9xz6_iqIMk-11" target="tZOPens_ip9xz6_iqIMk-5">
          <mxGeometry relative="1" as="geometry" />
        </mxCell>
        <mxCell id="tZOPens_ip9xz6_iqIMk-20" style="edgeStyle=orthogonalEdgeStyle;rounded=0;orthogonalLoop=1;jettySize=auto;html=1;entryX=0;entryY=0.75;entryDx=0;entryDy=0;startArrow=diamond;startFill=0;strokeColor=#FF8000;" edge="1" parent="1" source="tZOPens_ip9xz6_iqIMk-12" target="tZOPens_ip9xz6_iqIMk-8">
          <mxGeometry relative="1" as="geometry" />
        </mxCell>
      </root>
    </mxGraphModel>
  </diagram>
  <diagram name="example-proxy-pattern" id="uEhr5f_ZMvRXy3yJH4Eb">
    <mxGraphModel dx="606" dy="674" grid="1" gridSize="10" guides="1" tooltips="1" connect="1" arrows="1" fold="1" page="1" pageScale="1" pageWidth="850" pageHeight="1100" math="0" shadow="0">
      <root>
        <mxCell id="QEolbciR_0hoJLGt7389-0" />
        <mxCell id="QEolbciR_0hoJLGt7389-1" parent="QEolbciR_0hoJLGt7389-0" />
        <mxCell id="QEolbciR_0hoJLGt7389-2" value="" style="edgeStyle=orthogonalEdgeStyle;rounded=0;orthogonalLoop=1;jettySize=auto;html=1;strokeColor=#FF8000;" edge="1" parent="QEolbciR_0hoJLGt7389-1" source="QEolbciR_0hoJLGt7389-3">
          <mxGeometry relative="1" as="geometry">
            <mxPoint x="380" y="260" as="targetPoint" />
          </mxGeometry>
        </mxCell>
        <mxCell id="QEolbciR_0hoJLGt7389-3" value="Client" style="rounded=0;whiteSpace=wrap;html=1;fillColor=#cdeb8b;strokeColor=#36393d;" vertex="1" parent="QEolbciR_0hoJLGt7389-1">
          <mxGeometry x="340" y="150" width="80" height="40" as="geometry" />
        </mxCell>
        <mxCell id="QEolbciR_0hoJLGt7389-4" value="&lt;b&gt;&amp;lt;&amp;lt;interface&amp;gt;&amp;gt; server&lt;/b&gt;" style="swimlane;fontStyle=0;childLayout=stackLayout;horizontal=1;startSize=26;fillColor=none;horizontalStack=0;resizeParent=1;resizeParentMax=0;resizeLast=0;collapsible=1;marginBottom=0;whiteSpace=wrap;html=1;" vertex="1" parent="QEolbciR_0hoJLGt7389-1">
          <mxGeometry x="260" y="260" width="300" height="52" as="geometry" />
        </mxCell>
        <mxCell id="QEolbciR_0hoJLGt7389-5" value="+ handleRequest(url: string, method: string): int, string" style="text;strokeColor=none;fillColor=none;align=left;verticalAlign=top;spacingLeft=4;spacingRight=4;overflow=hidden;rotatable=0;points=[[0,0.5],[1,0.5]];portConstraint=eastwest;whiteSpace=wrap;html=1;" vertex="1" parent="QEolbciR_0hoJLGt7389-4">
          <mxGeometry y="26" width="300" height="26" as="geometry" />
        </mxCell>
        <mxCell id="QEolbciR_0hoJLGt7389-6" style="edgeStyle=orthogonalEdgeStyle;rounded=0;orthogonalLoop=1;jettySize=auto;html=1;dashed=1;endArrow=block;endFill=0;strokeColor=#FF8000;" edge="1" parent="QEolbciR_0hoJLGt7389-1" source="QEolbciR_0hoJLGt7389-7" target="QEolbciR_0hoJLGt7389-5">
          <mxGeometry relative="1" as="geometry">
            <Array as="points">
              <mxPoint x="560" y="360" />
              <mxPoint x="380" y="360" />
            </Array>
          </mxGeometry>
        </mxCell>
        <mxCell id="QEolbciR_0hoJLGt7389-7" value="&lt;b&gt;Application&lt;/b&gt;" style="swimlane;fontStyle=0;childLayout=stackLayout;horizontal=1;startSize=26;fillColor=none;horizontalStack=0;resizeParent=1;resizeParentMax=0;resizeLast=0;collapsible=1;marginBottom=0;whiteSpace=wrap;html=1;" vertex="1" parent="QEolbciR_0hoJLGt7389-1">
          <mxGeometry x="480" y="390" width="250" height="58" as="geometry" />
        </mxCell>
        <mxCell id="QEolbciR_0hoJLGt7389-8" value="+ ServeHTTP(url, method: string): int, string" style="text;strokeColor=none;fillColor=none;align=left;verticalAlign=top;spacingLeft=4;spacingRight=4;overflow=hidden;rotatable=0;points=[[0,0.5],[1,0.5]];portConstraint=eastwest;whiteSpace=wrap;html=1;" vertex="1" parent="QEolbciR_0hoJLGt7389-7">
          <mxGeometry y="26" width="250" height="32" as="geometry" />
        </mxCell>
        <mxCell id="QEolbciR_0hoJLGt7389-9" value="Proxy" style="swimlane;fontStyle=1;align=center;verticalAlign=top;childLayout=stackLayout;horizontal=1;startSize=26;horizontalStack=0;resizeParent=1;resizeParentMax=0;resizeLast=0;collapsible=1;marginBottom=0;whiteSpace=wrap;html=1;" vertex="1" parent="QEolbciR_0hoJLGt7389-1">
          <mxGeometry x="150" y="372" width="210" height="156" as="geometry" />
        </mxCell>
        <mxCell id="QEolbciR_0hoJLGt7389-10" value="- application: *Application&lt;br&gt;- maxAllowedRequest: 2&lt;br&gt;- rateLimiter:map[string]int" style="text;strokeColor=none;fillColor=none;align=left;verticalAlign=top;spacingLeft=4;spacingRight=4;overflow=hidden;rotatable=0;points=[[0,0.5],[1,0.5]];portConstraint=eastwest;whiteSpace=wrap;html=1;" vertex="1" parent="QEolbciR_0hoJLGt7389-9">
          <mxGeometry y="26" width="210" height="54" as="geometry" />
        </mxCell>
        <mxCell id="QEolbciR_0hoJLGt7389-11" value="" style="line;strokeWidth=1;fillColor=none;align=left;verticalAlign=middle;spacingTop=-1;spacingLeft=3;spacingRight=3;rotatable=0;labelPosition=right;points=[];portConstraint=eastwest;strokeColor=inherit;" vertex="1" parent="QEolbciR_0hoJLGt7389-9">
          <mxGeometry y="80" width="210" height="8" as="geometry" />
        </mxCell>
        <mxCell id="QEolbciR_0hoJLGt7389-12" value="+ handleRequest(url: string, method: string): int, string&lt;br&gt;+ checkRateLimiting(url:string): bool" style="text;strokeColor=none;fillColor=none;align=left;verticalAlign=top;spacingLeft=4;spacingRight=4;overflow=hidden;rotatable=0;points=[[0,0.5],[1,0.5]];portConstraint=eastwest;whiteSpace=wrap;html=1;" vertex="1" parent="QEolbciR_0hoJLGt7389-9">
          <mxGeometry y="88" width="210" height="68" as="geometry" />
        </mxCell>
        <mxCell id="QEolbciR_0hoJLGt7389-17" style="edgeStyle=orthogonalEdgeStyle;rounded=0;orthogonalLoop=1;jettySize=auto;html=1;entryX=0.479;entryY=1.013;entryDx=0;entryDy=0;entryPerimeter=0;dashed=1;endArrow=block;endFill=0;strokeColor=#FF8000;" edge="1" parent="QEolbciR_0hoJLGt7389-1" source="QEolbciR_0hoJLGt7389-9" target="QEolbciR_0hoJLGt7389-5">
          <mxGeometry relative="1" as="geometry" />
        </mxCell>
        <mxCell id="QEolbciR_0hoJLGt7389-18" style="edgeStyle=orthogonalEdgeStyle;rounded=0;orthogonalLoop=1;jettySize=auto;html=1;entryX=0;entryY=0.75;entryDx=0;entryDy=0;startArrow=diamond;startFill=0;strokeColor=#FF8000;" edge="1" parent="QEolbciR_0hoJLGt7389-1" source="QEolbciR_0hoJLGt7389-10" target="QEolbciR_0hoJLGt7389-7">
          <mxGeometry relative="1" as="geometry" />
        </mxCell>
      </root>
    </mxGraphModel>
  </diagram>
  <diagram id="-Tusb4eZ7UKQ209jwBiw" name="command-design-pattern">
    <mxGraphModel dx="1784" dy="511" grid="1" gridSize="10" guides="1" tooltips="1" connect="1" arrows="1" fold="1" page="1" pageScale="1" pageWidth="850" pageHeight="1100" math="0" shadow="0">
      <root>
        <mxCell id="0" />
        <mxCell id="1" parent="0" />
        <mxCell id="Y7_XDcjIgZ1aVrRmSmU3-8" value="ConcreateCommand1" style="swimlane;fontStyle=1;align=center;verticalAlign=top;childLayout=stackLayout;horizontal=1;startSize=26;horizontalStack=0;resizeParent=1;resizeParentMax=0;resizeLast=0;collapsible=1;marginBottom=0;whiteSpace=wrap;html=1;" vertex="1" parent="1">
          <mxGeometry x="150" y="402" width="180" height="110" as="geometry" />
        </mxCell>
        <mxCell id="Y7_XDcjIgZ1aVrRmSmU3-9" value="- receiver&lt;div&gt;- params&lt;/div&gt;" style="text;strokeColor=none;fillColor=none;align=left;verticalAlign=top;spacingLeft=4;spacingRight=4;overflow=hidden;rotatable=0;points=[[0,0.5],[1,0.5]];portConstraint=eastwest;whiteSpace=wrap;html=1;" vertex="1" parent="Y7_XDcjIgZ1aVrRmSmU3-8">
          <mxGeometry y="26" width="180" height="34" as="geometry" />
        </mxCell>
        <mxCell id="Y7_XDcjIgZ1aVrRmSmU3-10" value="" style="line;strokeWidth=1;fillColor=none;align=left;verticalAlign=middle;spacingTop=-1;spacingLeft=3;spacingRight=3;rotatable=0;labelPosition=right;points=[];portConstraint=eastwest;strokeColor=inherit;" vertex="1" parent="Y7_XDcjIgZ1aVrRmSmU3-8">
          <mxGeometry y="60" width="180" height="8" as="geometry" />
        </mxCell>
        <mxCell id="Y7_XDcjIgZ1aVrRmSmU3-11" value="+ Command1(receiver,params)&lt;br&gt;+ execute()" style="text;strokeColor=none;fillColor=none;align=left;verticalAlign=top;spacingLeft=4;spacingRight=4;overflow=hidden;rotatable=0;points=[[0,0.5],[1,0.5]];portConstraint=eastwest;whiteSpace=wrap;html=1;" vertex="1" parent="Y7_XDcjIgZ1aVrRmSmU3-8">
          <mxGeometry y="68" width="180" height="42" as="geometry" />
        </mxCell>
        <mxCell id="Y7_XDcjIgZ1aVrRmSmU3-33" style="edgeStyle=orthogonalEdgeStyle;rounded=0;orthogonalLoop=1;jettySize=auto;html=1;entryX=0.25;entryY=0;entryDx=0;entryDy=0;endArrow=open;endFill=0;dashed=1;" edge="1" parent="1" source="Y7_XDcjIgZ1aVrRmSmU3-15" target="Y7_XDcjIgZ1aVrRmSmU3-8">
          <mxGeometry relative="1" as="geometry" />
        </mxCell>
        <mxCell id="Y7_XDcjIgZ1aVrRmSmU3-38" style="edgeStyle=orthogonalEdgeStyle;rounded=0;orthogonalLoop=1;jettySize=auto;html=1;" edge="1" parent="1" source="Y7_XDcjIgZ1aVrRmSmU3-15" target="Y7_XDcjIgZ1aVrRmSmU3-34">
          <mxGeometry relative="1" as="geometry">
            <Array as="points">
              <mxPoint x="20" y="310" />
            </Array>
          </mxGeometry>
        </mxCell>
        <mxCell id="Y7_XDcjIgZ1aVrRmSmU3-45" style="edgeStyle=orthogonalEdgeStyle;rounded=0;orthogonalLoop=1;jettySize=auto;html=1;entryX=0.25;entryY=0;entryDx=0;entryDy=0;dashed=1;endArrow=open;endFill=0;" edge="1" parent="1" source="Y7_XDcjIgZ1aVrRmSmU3-15" target="Y7_XDcjIgZ1aVrRmSmU3-27">
          <mxGeometry relative="1" as="geometry" />
        </mxCell>
        <mxCell id="Y7_XDcjIgZ1aVrRmSmU3-15" value="Client" style="rounded=0;whiteSpace=wrap;html=1;align=center;fillColor=#d5e8d4;strokeColor=#82b366;" vertex="1" parent="1">
          <mxGeometry x="85" y="290" width="100" height="40" as="geometry" />
        </mxCell>
        <mxCell id="Y7_XDcjIgZ1aVrRmSmU3-23" style="edgeStyle=orthogonalEdgeStyle;rounded=0;orthogonalLoop=1;jettySize=auto;html=1;" edge="1" parent="1" source="Y7_XDcjIgZ1aVrRmSmU3-18" target="Y7_XDcjIgZ1aVrRmSmU3-21">
          <mxGeometry relative="1" as="geometry" />
        </mxCell>
        <mxCell id="Y7_XDcjIgZ1aVrRmSmU3-26" style="edgeStyle=orthogonalEdgeStyle;rounded=0;orthogonalLoop=1;jettySize=auto;html=1;entryX=0.5;entryY=0;entryDx=0;entryDy=0;endArrow=none;endFill=0;" edge="1" parent="1" source="Y7_XDcjIgZ1aVrRmSmU3-18" target="Y7_XDcjIgZ1aVrRmSmU3-15">
          <mxGeometry relative="1" as="geometry" />
        </mxCell>
        <mxCell id="Y7_XDcjIgZ1aVrRmSmU3-18" value="copy = new CopyCommand(editor)&lt;div&gt;button.setCommand(copy)&lt;/div&gt;" style="shape=note;whiteSpace=wrap;html=1;backgroundOutline=1;darkOpacity=0.05;" vertex="1" parent="1">
          <mxGeometry x="50" y="146" width="170" height="100" as="geometry" />
        </mxCell>
        <mxCell id="Y7_XDcjIgZ1aVrRmSmU3-44" style="edgeStyle=orthogonalEdgeStyle;rounded=0;orthogonalLoop=1;jettySize=auto;html=1;entryX=0;entryY=0.25;entryDx=0;entryDy=0;" edge="1" parent="1" source="Y7_XDcjIgZ1aVrRmSmU3-19" target="Y7_XDcjIgZ1aVrRmSmU3-24">
          <mxGeometry relative="1" as="geometry" />
        </mxCell>
        <mxCell id="Y7_XDcjIgZ1aVrRmSmU3-19" value="Invoker" style="swimlane;fontStyle=1;align=center;verticalAlign=top;childLayout=stackLayout;horizontal=1;startSize=26;horizontalStack=0;resizeParent=1;resizeParentMax=0;resizeLast=0;collapsible=1;marginBottom=0;whiteSpace=wrap;html=1;" vertex="1" parent="1">
          <mxGeometry x="310" y="140" width="160" height="100" as="geometry" />
        </mxCell>
        <mxCell id="Y7_XDcjIgZ1aVrRmSmU3-20" value="- command" style="text;strokeColor=none;fillColor=none;align=left;verticalAlign=top;spacingLeft=4;spacingRight=4;overflow=hidden;rotatable=0;points=[[0,0.5],[1,0.5]];portConstraint=eastwest;whiteSpace=wrap;html=1;" vertex="1" parent="Y7_XDcjIgZ1aVrRmSmU3-19">
          <mxGeometry y="26" width="160" height="26" as="geometry" />
        </mxCell>
        <mxCell id="Y7_XDcjIgZ1aVrRmSmU3-21" value="" style="line;strokeWidth=1;fillColor=none;align=left;verticalAlign=middle;spacingTop=-1;spacingLeft=3;spacingRight=3;rotatable=0;labelPosition=right;points=[];portConstraint=eastwest;strokeColor=inherit;" vertex="1" parent="Y7_XDcjIgZ1aVrRmSmU3-19">
          <mxGeometry y="52" width="160" height="8" as="geometry" />
        </mxCell>
        <mxCell id="Y7_XDcjIgZ1aVrRmSmU3-22" value="+ setCommand(command)&lt;div&gt;+ executeCommand()&lt;/div&gt;" style="text;strokeColor=none;fillColor=none;align=left;verticalAlign=top;spacingLeft=4;spacingRight=4;overflow=hidden;rotatable=0;points=[[0,0.5],[1,0.5]];portConstraint=eastwest;whiteSpace=wrap;html=1;" vertex="1" parent="Y7_XDcjIgZ1aVrRmSmU3-19">
          <mxGeometry y="60" width="160" height="40" as="geometry" />
        </mxCell>
        <mxCell id="Y7_XDcjIgZ1aVrRmSmU3-24" value="&lt;b&gt;&amp;lt;&amp;lt;interface&amp;gt;&amp;gt; Command&lt;/b&gt;" style="swimlane;fontStyle=0;childLayout=stackLayout;horizontal=1;startSize=26;fillColor=none;horizontalStack=0;resizeParent=1;resizeParentMax=0;resizeLast=0;collapsible=1;marginBottom=0;whiteSpace=wrap;html=1;" vertex="1" parent="1">
          <mxGeometry x="540" y="146" width="250" height="52" as="geometry" />
        </mxCell>
        <mxCell id="Y7_XDcjIgZ1aVrRmSmU3-25" value="+ execute()" style="text;strokeColor=none;fillColor=none;align=left;verticalAlign=top;spacingLeft=4;spacingRight=4;overflow=hidden;rotatable=0;points=[[0,0.5],[1,0.5]];portConstraint=eastwest;whiteSpace=wrap;html=1;" vertex="1" parent="Y7_XDcjIgZ1aVrRmSmU3-24">
          <mxGeometry y="26" width="250" height="26" as="geometry" />
        </mxCell>
        <mxCell id="Y7_XDcjIgZ1aVrRmSmU3-27" value="ConcreteCommand2" style="swimlane;fontStyle=1;align=center;verticalAlign=top;childLayout=stackLayout;horizontal=1;startSize=26;horizontalStack=0;resizeParent=1;resizeParentMax=0;resizeLast=0;collapsible=1;marginBottom=0;whiteSpace=wrap;html=1;" vertex="1" parent="1">
          <mxGeometry x="360" y="402" width="180" height="80" as="geometry" />
        </mxCell>
        <mxCell id="Y7_XDcjIgZ1aVrRmSmU3-28" value="..." style="text;strokeColor=none;fillColor=none;align=left;verticalAlign=top;spacingLeft=4;spacingRight=4;overflow=hidden;rotatable=0;points=[[0,0.5],[1,0.5]];portConstraint=eastwest;whiteSpace=wrap;html=1;" vertex="1" parent="Y7_XDcjIgZ1aVrRmSmU3-27">
          <mxGeometry y="26" width="180" height="24" as="geometry" />
        </mxCell>
        <mxCell id="Y7_XDcjIgZ1aVrRmSmU3-29" value="" style="line;strokeWidth=1;fillColor=none;align=left;verticalAlign=middle;spacingTop=-1;spacingLeft=3;spacingRight=3;rotatable=0;labelPosition=right;points=[];portConstraint=eastwest;strokeColor=inherit;" vertex="1" parent="Y7_XDcjIgZ1aVrRmSmU3-27">
          <mxGeometry y="50" width="180" height="8" as="geometry" />
        </mxCell>
        <mxCell id="Y7_XDcjIgZ1aVrRmSmU3-30" value="+ execute()" style="text;strokeColor=none;fillColor=none;align=left;verticalAlign=top;spacingLeft=4;spacingRight=4;overflow=hidden;rotatable=0;points=[[0,0.5],[1,0.5]];portConstraint=eastwest;whiteSpace=wrap;html=1;" vertex="1" parent="Y7_XDcjIgZ1aVrRmSmU3-27">
          <mxGeometry y="58" width="180" height="22" as="geometry" />
        </mxCell>
        <mxCell id="Y7_XDcjIgZ1aVrRmSmU3-31" style="edgeStyle=orthogonalEdgeStyle;rounded=0;orthogonalLoop=1;jettySize=auto;html=1;entryX=0.621;entryY=1.016;entryDx=0;entryDy=0;entryPerimeter=0;dashed=1;endArrow=block;endFill=0;" edge="1" parent="1" source="Y7_XDcjIgZ1aVrRmSmU3-27" target="Y7_XDcjIgZ1aVrRmSmU3-25">
          <mxGeometry relative="1" as="geometry">
            <mxPoint x="432.75" y="311.01200000000006" as="targetPoint" />
            <Array as="points">
              <mxPoint x="695" y="442" />
            </Array>
          </mxGeometry>
        </mxCell>
        <mxCell id="Y7_XDcjIgZ1aVrRmSmU3-32" style="edgeStyle=orthogonalEdgeStyle;rounded=0;orthogonalLoop=1;jettySize=auto;html=1;dashed=1;endArrow=block;endFill=0;entryX=0.339;entryY=1.016;entryDx=0;entryDy=0;entryPerimeter=0;" edge="1" parent="1" source="Y7_XDcjIgZ1aVrRmSmU3-8" target="Y7_XDcjIgZ1aVrRmSmU3-25">
          <mxGeometry relative="1" as="geometry">
            <mxPoint x="410" y="312" as="targetPoint" />
          </mxGeometry>
        </mxCell>
        <mxCell id="Y7_XDcjIgZ1aVrRmSmU3-39" style="edgeStyle=orthogonalEdgeStyle;rounded=0;orthogonalLoop=1;jettySize=auto;html=1;startArrow=classic;startFill=1;endArrow=none;endFill=0;" edge="1" parent="1" source="Y7_XDcjIgZ1aVrRmSmU3-34">
          <mxGeometry relative="1" as="geometry">
            <mxPoint x="20" y="560" as="targetPoint" />
          </mxGeometry>
        </mxCell>
        <mxCell id="Y7_XDcjIgZ1aVrRmSmU3-34" value="Receiver" style="swimlane;fontStyle=1;align=center;verticalAlign=top;childLayout=stackLayout;horizontal=1;startSize=26;horizontalStack=0;resizeParent=1;resizeParentMax=0;resizeLast=0;collapsible=1;marginBottom=0;whiteSpace=wrap;html=1;" vertex="1" parent="1">
          <mxGeometry x="-70" y="402" width="180" height="80" as="geometry" />
        </mxCell>
        <mxCell id="Y7_XDcjIgZ1aVrRmSmU3-35" value="..." style="text;strokeColor=none;fillColor=none;align=left;verticalAlign=top;spacingLeft=4;spacingRight=4;overflow=hidden;rotatable=0;points=[[0,0.5],[1,0.5]];portConstraint=eastwest;whiteSpace=wrap;html=1;" vertex="1" parent="Y7_XDcjIgZ1aVrRmSmU3-34">
          <mxGeometry y="26" width="180" height="24" as="geometry" />
        </mxCell>
        <mxCell id="Y7_XDcjIgZ1aVrRmSmU3-36" value="" style="line;strokeWidth=1;fillColor=none;align=left;verticalAlign=middle;spacingTop=-1;spacingLeft=3;spacingRight=3;rotatable=0;labelPosition=right;points=[];portConstraint=eastwest;strokeColor=inherit;" vertex="1" parent="Y7_XDcjIgZ1aVrRmSmU3-34">
          <mxGeometry y="50" width="180" height="8" as="geometry" />
        </mxCell>
        <mxCell id="Y7_XDcjIgZ1aVrRmSmU3-37" value="+ operation(a,b,c)" style="text;strokeColor=none;fillColor=none;align=left;verticalAlign=top;spacingLeft=4;spacingRight=4;overflow=hidden;rotatable=0;points=[[0,0.5],[1,0.5]];portConstraint=eastwest;whiteSpace=wrap;html=1;" vertex="1" parent="Y7_XDcjIgZ1aVrRmSmU3-34">
          <mxGeometry y="58" width="180" height="22" as="geometry" />
        </mxCell>
        <mxCell id="Y7_XDcjIgZ1aVrRmSmU3-41" value="receiver.operation(params)" style="shape=note;whiteSpace=wrap;html=1;backgroundOutline=1;darkOpacity=0.05;" vertex="1" parent="1">
          <mxGeometry x="-10" y="560" width="320" height="50" as="geometry" />
        </mxCell>
        <mxCell id="Y7_XDcjIgZ1aVrRmSmU3-42" style="edgeStyle=orthogonalEdgeStyle;rounded=0;orthogonalLoop=1;jettySize=auto;html=1;endArrow=none;endFill=0;" edge="1" parent="1" source="Y7_XDcjIgZ1aVrRmSmU3-8">
          <mxGeometry relative="1" as="geometry">
            <mxPoint x="240" y="560" as="targetPoint" />
          </mxGeometry>
        </mxCell>
      </root>
    </mxGraphModel>
  </diagram>
  <diagram id="JbQJCxdTUMHLCPy30vH1" name="decorator-pattern">
    <mxGraphModel dx="1728" dy="888" grid="1" gridSize="10" guides="1" tooltips="1" connect="1" arrows="1" fold="1" page="1" pageScale="1" pageWidth="850" pageHeight="1100" math="0" shadow="0">
      <root>
        <mxCell id="0" />
        <mxCell id="1" parent="0" />
        <mxCell id="FbRp2_By75_BIKW2NZAB-3" value="" style="edgeStyle=orthogonalEdgeStyle;rounded=0;orthogonalLoop=1;jettySize=auto;html=1;dashed=1;endArrow=none;endFill=0;fillColor=#ffe6cc;strokeColor=#d79b00;" edge="1" parent="1" source="FbRp2_By75_BIKW2NZAB-1" target="FbRp2_By75_BIKW2NZAB-2">
          <mxGeometry relative="1" as="geometry" />
        </mxCell>
        <mxCell id="FbRp2_By75_BIKW2NZAB-12" style="edgeStyle=orthogonalEdgeStyle;rounded=0;orthogonalLoop=1;jettySize=auto;html=1;entryX=0.5;entryY=0;entryDx=0;entryDy=0;fillColor=#ffe6cc;strokeColor=#d79b00;" edge="1" parent="1" source="FbRp2_By75_BIKW2NZAB-1" target="FbRp2_By75_BIKW2NZAB-7">
          <mxGeometry relative="1" as="geometry" />
        </mxCell>
        <mxCell id="FbRp2_By75_BIKW2NZAB-1" value="Client" style="whiteSpace=wrap;html=1;fillColor=#d5e8d4;strokeColor=#82b366;" vertex="1" parent="1">
          <mxGeometry x="180" y="160" width="120" height="60" as="geometry" />
        </mxCell>
        <mxCell id="FbRp2_By75_BIKW2NZAB-2" value="a = new Component()&lt;br&gt;b = new ConcreteDecorator(a)&lt;br&gt;c = new ConcreteDecorator(a)" style="whiteSpace=wrap;html=1;" vertex="1" parent="1">
          <mxGeometry x="400" y="160" width="200" height="60" as="geometry" />
        </mxCell>
        <mxCell id="FbRp2_By75_BIKW2NZAB-7" value="&amp;lt;&amp;lt;interface&amp;gt;&amp;gt;&lt;br&gt;Component" style="swimlane;fontStyle=0;childLayout=stackLayout;horizontal=1;startSize=40;fillColor=none;horizontalStack=0;resizeParent=1;resizeParentMax=0;resizeLast=0;collapsible=1;marginBottom=0;whiteSpace=wrap;html=1;" vertex="1" parent="1">
          <mxGeometry x="185" y="290" width="110" height="66" as="geometry" />
        </mxCell>
        <mxCell id="FbRp2_By75_BIKW2NZAB-8" value="+ execute()" style="text;strokeColor=none;fillColor=none;align=left;verticalAlign=top;spacingLeft=4;spacingRight=4;overflow=hidden;rotatable=0;points=[[0,0.5],[1,0.5]];portConstraint=eastwest;whiteSpace=wrap;html=1;" vertex="1" parent="FbRp2_By75_BIKW2NZAB-7">
          <mxGeometry y="40" width="110" height="26" as="geometry" />
        </mxCell>
        <mxCell id="FbRp2_By75_BIKW2NZAB-17" style="edgeStyle=orthogonalEdgeStyle;rounded=0;orthogonalLoop=1;jettySize=auto;html=1;entryX=0.5;entryY=1;entryDx=0;entryDy=0;endArrow=block;endFill=0;dashed=1;fillColor=#ffe6cc;strokeColor=#d79b00;" edge="1" parent="1" source="FbRp2_By75_BIKW2NZAB-13" target="FbRp2_By75_BIKW2NZAB-7">
          <mxGeometry relative="1" as="geometry" />
        </mxCell>
        <mxCell id="FbRp2_By75_BIKW2NZAB-13" value="ConcreteComponent" style="swimlane;fontStyle=1;align=center;verticalAlign=top;childLayout=stackLayout;horizontal=1;startSize=26;horizontalStack=0;resizeParent=1;resizeParentMax=0;resizeLast=0;collapsible=1;marginBottom=0;whiteSpace=wrap;html=1;" vertex="1" parent="1">
          <mxGeometry x="160" y="430" width="160" height="86" as="geometry" />
        </mxCell>
        <mxCell id="FbRp2_By75_BIKW2NZAB-14" value="...." style="text;strokeColor=none;fillColor=none;align=left;verticalAlign=top;spacingLeft=4;spacingRight=4;overflow=hidden;rotatable=0;points=[[0,0.5],[1,0.5]];portConstraint=eastwest;whiteSpace=wrap;html=1;" vertex="1" parent="FbRp2_By75_BIKW2NZAB-13">
          <mxGeometry y="26" width="160" height="26" as="geometry" />
        </mxCell>
        <mxCell id="FbRp2_By75_BIKW2NZAB-15" value="" style="line;strokeWidth=1;fillColor=none;align=left;verticalAlign=middle;spacingTop=-1;spacingLeft=3;spacingRight=3;rotatable=0;labelPosition=right;points=[];portConstraint=eastwest;strokeColor=inherit;" vertex="1" parent="FbRp2_By75_BIKW2NZAB-13">
          <mxGeometry y="52" width="160" height="8" as="geometry" />
        </mxCell>
        <mxCell id="FbRp2_By75_BIKW2NZAB-16" value="+ execute()" style="text;strokeColor=none;fillColor=none;align=left;verticalAlign=top;spacingLeft=4;spacingRight=4;overflow=hidden;rotatable=0;points=[[0,0.5],[1,0.5]];portConstraint=eastwest;whiteSpace=wrap;html=1;" vertex="1" parent="FbRp2_By75_BIKW2NZAB-13">
          <mxGeometry y="60" width="160" height="26" as="geometry" />
        </mxCell>
        <mxCell id="FbRp2_By75_BIKW2NZAB-22" style="edgeStyle=orthogonalEdgeStyle;rounded=0;orthogonalLoop=1;jettySize=auto;html=1;dashed=1;entryX=1;entryY=0.75;entryDx=0;entryDy=0;endArrow=block;endFill=0;fillColor=#ffe6cc;strokeColor=#d79b00;" edge="1" parent="1" source="FbRp2_By75_BIKW2NZAB-18" target="FbRp2_By75_BIKW2NZAB-7">
          <mxGeometry relative="1" as="geometry">
            <mxPoint x="240" y="360" as="targetPoint" />
            <Array as="points">
              <mxPoint x="560" y="340" />
              <mxPoint x="320" y="340" />
            </Array>
          </mxGeometry>
        </mxCell>
        <mxCell id="FbRp2_By75_BIKW2NZAB-18" value="BaseDecorator" style="swimlane;fontStyle=1;align=center;verticalAlign=top;childLayout=stackLayout;horizontal=1;startSize=26;horizontalStack=0;resizeParent=1;resizeParentMax=0;resizeLast=0;collapsible=1;marginBottom=0;whiteSpace=wrap;html=1;" vertex="1" parent="1">
          <mxGeometry x="460" y="430" width="200" height="110" as="geometry" />
        </mxCell>
        <mxCell id="FbRp2_By75_BIKW2NZAB-19" value="- wrappee: Component" style="text;strokeColor=none;fillColor=none;align=left;verticalAlign=top;spacingLeft=4;spacingRight=4;overflow=hidden;rotatable=0;points=[[0,0.5],[1,0.5]];portConstraint=eastwest;whiteSpace=wrap;html=1;" vertex="1" parent="FbRp2_By75_BIKW2NZAB-18">
          <mxGeometry y="26" width="200" height="26" as="geometry" />
        </mxCell>
        <mxCell id="FbRp2_By75_BIKW2NZAB-20" value="" style="line;strokeWidth=1;fillColor=none;align=left;verticalAlign=middle;spacingTop=-1;spacingLeft=3;spacingRight=3;rotatable=0;labelPosition=right;points=[];portConstraint=eastwest;strokeColor=inherit;" vertex="1" parent="FbRp2_By75_BIKW2NZAB-18">
          <mxGeometry y="52" width="200" height="8" as="geometry" />
        </mxCell>
        <mxCell id="FbRp2_By75_BIKW2NZAB-21" value="+ BaseDecorator(c Component)&lt;br&gt;+ execute()" style="text;strokeColor=none;fillColor=none;align=left;verticalAlign=top;spacingLeft=4;spacingRight=4;overflow=hidden;rotatable=0;points=[[0,0.5],[1,0.5]];portConstraint=eastwest;whiteSpace=wrap;html=1;" vertex="1" parent="FbRp2_By75_BIKW2NZAB-18">
          <mxGeometry y="60" width="200" height="50" as="geometry" />
        </mxCell>
        <mxCell id="FbRp2_By75_BIKW2NZAB-23" value="wrappee = c" style="rounded=0;whiteSpace=wrap;html=1;fillColor=#6d8764;fontColor=#ffffff;strokeColor=#3A5431;" vertex="1" parent="1">
          <mxGeometry x="720" y="490" width="120" height="31" as="geometry" />
        </mxCell>
        <mxCell id="FbRp2_By75_BIKW2NZAB-27" value="wrappee.execute()" style="rounded=0;whiteSpace=wrap;html=1;fillColor=#6d8764;fontColor=#ffffff;strokeColor=#3A5431;" vertex="1" parent="1">
          <mxGeometry x="720" y="560" width="120" height="30" as="geometry" />
        </mxCell>
        <mxCell id="FbRp2_By75_BIKW2NZAB-28" style="edgeStyle=orthogonalEdgeStyle;rounded=0;orthogonalLoop=1;jettySize=auto;html=1;entryX=0.998;entryY=0.573;entryDx=0;entryDy=0;entryPerimeter=0;dashed=1;endArrow=oval;endFill=0;fillColor=#ffe6cc;strokeColor=#d79b00;" edge="1" parent="1" source="FbRp2_By75_BIKW2NZAB-27" target="FbRp2_By75_BIKW2NZAB-21">
          <mxGeometry relative="1" as="geometry">
            <Array as="points">
              <mxPoint x="700" y="575" />
              <mxPoint x="700" y="519" />
            </Array>
          </mxGeometry>
        </mxCell>
        <mxCell id="FbRp2_By75_BIKW2NZAB-29" style="edgeStyle=orthogonalEdgeStyle;rounded=0;orthogonalLoop=1;jettySize=auto;html=1;entryX=1;entryY=0.31;entryDx=0;entryDy=0;entryPerimeter=0;endArrow=oval;endFill=0;fillColor=#ffe6cc;strokeColor=#d79b00;dashed=1;" edge="1" parent="1" source="FbRp2_By75_BIKW2NZAB-23" target="FbRp2_By75_BIKW2NZAB-21">
          <mxGeometry relative="1" as="geometry" />
        </mxCell>
        <mxCell id="FbRp2_By75_BIKW2NZAB-30" value="Concrete Decorators" style="swimlane;fontStyle=1;align=center;verticalAlign=top;childLayout=stackLayout;horizontal=1;startSize=26;horizontalStack=0;resizeParent=1;resizeParentMax=0;resizeLast=0;collapsible=1;marginBottom=0;whiteSpace=wrap;html=1;" vertex="1" parent="1">
          <mxGeometry x="300" y="630" width="160" height="100" as="geometry" />
        </mxCell>
        <mxCell id="FbRp2_By75_BIKW2NZAB-31" value="...." style="text;strokeColor=none;fillColor=none;align=left;verticalAlign=top;spacingLeft=4;spacingRight=4;overflow=hidden;rotatable=0;points=[[0,0.5],[1,0.5]];portConstraint=eastwest;whiteSpace=wrap;html=1;" vertex="1" parent="FbRp2_By75_BIKW2NZAB-30">
          <mxGeometry y="26" width="160" height="26" as="geometry" />
        </mxCell>
        <mxCell id="FbRp2_By75_BIKW2NZAB-32" value="" style="line;strokeWidth=1;fillColor=none;align=left;verticalAlign=middle;spacingTop=-1;spacingLeft=3;spacingRight=3;rotatable=0;labelPosition=right;points=[];portConstraint=eastwest;strokeColor=inherit;" vertex="1" parent="FbRp2_By75_BIKW2NZAB-30">
          <mxGeometry y="52" width="160" height="8" as="geometry" />
        </mxCell>
        <mxCell id="FbRp2_By75_BIKW2NZAB-33" value="+ execute()&lt;br&gt;+ extra()" style="text;strokeColor=none;fillColor=none;align=left;verticalAlign=top;spacingLeft=4;spacingRight=4;overflow=hidden;rotatable=0;points=[[0,0.5],[1,0.5]];portConstraint=eastwest;whiteSpace=wrap;html=1;" vertex="1" parent="FbRp2_By75_BIKW2NZAB-30">
          <mxGeometry y="60" width="160" height="40" as="geometry" />
        </mxCell>
        <mxCell id="FbRp2_By75_BIKW2NZAB-38" style="edgeStyle=orthogonalEdgeStyle;rounded=0;orthogonalLoop=1;jettySize=auto;html=1;entryX=0;entryY=0.6;entryDx=0;entryDy=0;entryPerimeter=0;fillColor=#ffe6cc;strokeColor=#d79b00;" edge="1" parent="1" source="FbRp2_By75_BIKW2NZAB-30" target="FbRp2_By75_BIKW2NZAB-21">
          <mxGeometry relative="1" as="geometry" />
        </mxCell>
        <mxCell id="FbRp2_By75_BIKW2NZAB-39" value="super:: execute()&lt;br&gt;extra()" style="rounded=0;whiteSpace=wrap;html=1;align=center;fillColor=#6d8764;fontColor=#ffffff;strokeColor=#3A5431;" vertex="1" parent="1">
          <mxGeometry x="530" y="640" width="120" height="60" as="geometry" />
        </mxCell>
        <mxCell id="FbRp2_By75_BIKW2NZAB-40" style="edgeStyle=orthogonalEdgeStyle;rounded=0;orthogonalLoop=1;jettySize=auto;html=1;entryX=1.001;entryY=0.347;entryDx=0;entryDy=0;entryPerimeter=0;fillColor=#ffe6cc;strokeColor=#d79b00;dashed=1;endArrow=oval;endFill=0;" edge="1" parent="1" source="FbRp2_By75_BIKW2NZAB-39" target="FbRp2_By75_BIKW2NZAB-33">
          <mxGeometry relative="1" as="geometry" />
        </mxCell>
        <mxCell id="FbRp2_By75_BIKW2NZAB-41" style="edgeStyle=orthogonalEdgeStyle;rounded=0;orthogonalLoop=1;jettySize=auto;html=1;entryX=1;entryY=0.25;entryDx=0;entryDy=0;endArrow=open;endFill=0;startArrow=diamond;startFill=0;fillColor=#ffe6cc;strokeColor=#d79b00;" edge="1" parent="1" source="FbRp2_By75_BIKW2NZAB-19" target="FbRp2_By75_BIKW2NZAB-7">
          <mxGeometry relative="1" as="geometry">
            <Array as="points">
              <mxPoint x="680" y="469" />
              <mxPoint x="680" y="307" />
            </Array>
          </mxGeometry>
        </mxCell>
      </root>
    </mxGraphModel>
  </diagram>
</mxfile>
